<?xml version="1.0" encoding="UTF-8"?>
<!DOCTYPE svg PUBLIC "-//W3C//DTD SVG 1.1//EN" "http://www.w3.org/Graphics/SVG/1.1/DTD/svg11.dtd">
<!-- Creator: CorelDRAW 2020 (64-Bit) -->
<svg xmlns="http://www.w3.org/2000/svg" xml:space="preserve" width="4.29588in" height="1.83191in" version="1.1" style="shape-rendering:geometricPrecision; text-rendering:geometricPrecision; image-rendering:optimizeQuality; fill-rule:evenodd; clip-rule:evenodd"
viewBox="0 0 1358.77 579.42"
 xmlns:xlink="http://www.w3.org/1999/xlink"
 xmlns:xodm="http://www.corel.com/coreldraw/odm/2003">
 <defs>
  <style type="text/css">
   <![CDATA[
    .fil3 {fill:#FEFEFE}
    .fil4 {fill:#D5262B}
    .fil6 {fill:#6FAA87}
    .fil5 {fill:#2A3D2B}
    .fil2 {fill:#003300}
    .fil0 {fill:#003300}
    .fil1 {fill:red}
   ]]>
  </style>
 </defs>
 <g id="Layer_x0020_1">
  <metadata id="CorelCorpID_0Corel-Layer"/>
  <path class="fil0" d="M656.13 394.23c-0.86,0.8 -1.72,1.49 -2.57,2.08 -4.06,7.02 -8.46,14.21 -13.19,21.57 -7.46,11.62 -15.42,22.05 -23.85,31.31 -8.43,9.27 -17.48,16.52 -27.16,21.78 -9.68,5.25 -19.77,7.05 -30.28,5.39 -8.01,-1.38 -14.65,-4.77 -19.9,-10.16 -5.26,-5.4 -8.57,-12.1 -9.95,-20.12 -1.94,-12.45 -0.49,-23.99 4.35,-34.63 4.84,-10.64 10.71,-20.8 17.62,-30.48 2.77,-4.15 3.94,-6.98 3.53,-8.5 -0.41,-1.52 -1.86,-2.35 -4.35,-2.49 -2.49,-0.14 -5.74,0 -9.74,0.41 -4.01,0.42 -8.09,0.63 -12.24,0.63 -2.21,3.04 -4.22,6.01 -6.02,8.91 -1.79,2.91 -4.76,7.4 -8.92,13.48 -3.04,4.43 -6.29,6.98 -9.74,7.67 -3.46,0.69 -6.43,0.21 -8.92,-1.45 -2.49,-1.65 -4.01,-4.21 -4.56,-7.67 -0.55,-3.46 0.69,-7.26 3.73,-11.41 1.38,-1.94 2.35,-3.39 2.9,-4.36 0.56,-0.97 1.18,-1.94 1.87,-2.9 0.69,-0.97 1.59,-2.28 2.7,-3.94 1.1,-1.66 2.76,-4.15 4.97,-7.47 -3.59,-4.98 -4.97,-12.16 -4.14,-21.57 0.55,-6.36 3.1,-13.06 7.67,-20.11 4.57,-7.05 9.89,-12.93 15.97,-17.63 6.08,-4.7 12.24,-7.4 18.46,-8.09 6.22,-0.68 11.27,2.01 15.14,8.09 3.6,5.81 4.84,11.27 3.74,16.38 -1.11,5.12 -3.46,10.44 -7.05,15.97 6.08,-0.27 12.44,-0.62 19.07,-1.04 6.64,-0.41 11.89,0.76 15.76,3.53 2.49,1.66 5.46,4.01 8.92,7.05 3.46,3.03 6.64,6.36 9.54,9.95 2.91,3.6 4.84,7.13 5.81,10.58 0.97,3.45 0.2,6.15 -2.29,8.08 -2.48,2.22 -6.22,6.5 -11.2,12.86 -4.98,6.36 -9.54,13.27 -13.68,20.74 -4.14,7.47 -7.26,14.51 -9.33,21.16 -2.07,6.63 -1.59,11.19 1.45,13.68 1.94,1.66 4.63,1.31 8.09,-1.03 3.46,-2.35 7.25,-5.73 11.4,-10.16 4.15,-4.42 8.43,-9.61 12.85,-15.55 4.43,-5.95 8.57,-11.62 12.45,-17.01 3.87,-5.39 7.26,-10.3 10.16,-14.72 2.91,-4.43 4.91,-7.33 6.02,-8.71 0.35,-0.45 0.71,-0.89 1.07,-1.3 4.16,-5.93 8.02,-11.65 11.58,-17.16 4.56,-7.05 9.53,-13.68 14.93,-19.9 5.39,-6.22 11.68,-11.96 18.87,-17.21 7.19,-5.25 16.03,-10.1 26.54,-14.52 4.7,-1.94 9.95,-1.73 15.76,0.62 5.81,2.35 10.86,5.53 15.14,9.54 4.28,4.01 7.12,8.22 8.51,12.65 1.38,4.43 0.13,7.74 -3.74,9.96 -10.5,5.81 -17.49,11.61 -20.94,17.41 -3.46,5.81 -5.05,11.75 -4.78,17.84 0.28,6.09 1.53,12.65 3.74,19.7 2.21,7.05 3.87,14.72 4.98,23.02 9.12,-3.6 17,-9.19 23.64,-16.8 4.48,-5.13 8.96,-10.6 13.43,-16.43 1.69,-4 3.43,-7.93 5.22,-11.77 4.98,-10.65 10.03,-20.19 15.14,-28.62 5.11,-8.43 9.33,-14.58 12.65,-18.46 5.25,-5.8 11.33,-8.91 18.25,-9.33 6.91,-0.41 12.86,0.91 17.83,3.94 4.98,3.04 8.23,7.34 9.75,12.86 1.52,5.53 -0.35,11.62 -5.6,18.25 -2.49,3.04 -5.66,7.67 -9.54,13.9 -3.87,6.22 -7.88,13.06 -12.02,20.53 -4.15,7.46 -8.23,15.13 -12.23,23.01 -4.01,7.88 -7.4,15 -10.16,21.36 -2.76,6.36 -4.56,11.41 -5.4,15.14 -0.82,3.73 -0.27,5.32 1.66,4.76 6.64,-3.31 13.06,-7.74 19.29,-13.27 6.22,-5.53 12.16,-11.54 17.84,-18.04 5.66,-6.5 11.13,-13.27 16.38,-20.32 5.25,-7.05 10.51,-13.89 15.76,-20.53 3.87,-8.85 7.95,-17.29 12.23,-25.3 4.28,-8.02 9.2,-15.21 14.73,-21.57 3.87,-6.36 9.2,-10.57 15.97,-12.65 6.77,-2.08 13.06,-2.35 18.87,-0.83 5.81,1.52 10.16,4.84 13.06,9.96 2.91,5.11 2.42,11.82 -1.45,20.11 -0.55,1.11 -1.8,3.18 -3.73,6.22 -1.94,3.04 -4.28,6.7 -7.05,10.99 -2.76,4.28 -5.74,8.98 -8.92,14.1 -3.18,5.12 -6.29,10.44 -9.33,15.97 -3.31,6.36 -6.5,12.78 -9.54,19.28 -3.04,6.5 -5.74,12.52 -8.09,18.05 -2.35,5.52 -4.35,10.36 -6.01,14.51 -1.66,4.15 -2.76,6.91 -3.32,8.29l-0.84 2.08c10.24,-6.36 19.15,-13.13 26.76,-20.32 7.6,-7.19 14.38,-14.24 20.32,-21.15 4.19,-4.87 8.03,-9.64 11.54,-14.31 2.25,-4.4 4.76,-8.75 7.54,-13.06 6.22,-9.68 13.47,-18.94 21.77,-27.79 8.3,-8.85 17.21,-16.59 26.76,-23.23 9.54,-6.64 19.36,-11.75 29.44,-15.35 10.09,-3.6 20.11,-5.25 30.07,-4.98 6.91,1.66 12.99,5.12 18.25,10.37l1.24 -1.66c5.26,-5.8 11.34,-8.91 18.25,-9.33 6.91,-0.41 12.86,0.91 17.84,3.94 4.98,3.04 8.22,7.34 9.74,12.86 1.52,5.53 -0.35,11.62 -5.6,18.25 -2.49,3.04 -5.67,7.6 -9.54,13.68 -3.87,6.08 -7.88,12.86 -12.03,20.32 -4.14,7.47 -8.15,15.07 -12.02,22.81 -3.87,7.74 -7.19,14.79 -9.95,21.15 -5.25,11.62 -7.05,18.25 -5.39,19.91 1.66,1.67 7.74,-1.94 18.25,-10.78 9.96,-8.29 19.35,-18.17 28.2,-29.65 5.47,-7.1 10.85,-14.01 16.11,-20.74 6.19,-9.6 13.4,-18.79 21.63,-27.57 8.3,-8.85 17.21,-16.59 26.76,-23.23 9.54,-6.64 19.35,-11.75 29.44,-15.35 10.1,-3.6 20.11,-5.25 30.07,-4.98 6.63,1.66 12.02,4.42 16.17,8.29 0,-0.56 0.27,-1.1 0.83,-1.65l9.95 -18.67c5.25,-9.95 10.51,-19.36 15.76,-28.21 5.25,-8.85 10.16,-16.8 14.72,-23.84 4.56,-7.05 8.57,-12.93 12.02,-17.63 3.46,-4.7 6.02,-7.88 7.68,-9.53 5.81,-6.36 11.96,-10.16 18.45,-11.41 6.5,-1.24 12.1,-0.48 16.8,2.28 4.7,2.77 7.74,7.2 9.13,13.27 1.38,6.08 -0.28,13.41 -4.98,21.98 -10.78,18.25 -21.92,36.36 -33.39,54.33 -11.48,17.98 -22.47,37.18 -32.97,57.65 -6.64,13.27 -12.86,26.06 -18.67,38.36 -5.8,12.3 -10.5,22.6 -14.1,30.9 -2.76,6.36 -4.35,10.71 -4.77,13.06 -0.41,2.35 0,3.46 1.25,3.32 1.24,-0.14 3.11,-1.18 5.59,-3.11 2.49,-1.94 5.25,-4.01 8.3,-6.22 10.51,-8.02 19.91,-17.56 28.21,-28.62 8.29,-11.06 16.59,-21.84 24.88,-32.35 3.6,-4.71 7.13,-7.75 10.58,-9.13 3.46,-1.38 6.29,-1.45 8.49,-0.21 2.22,1.24 3.46,3.66 3.74,7.26 0.27,3.59 -0.83,8.01 -3.32,13.27 -6.64,9.68 -13.97,20.12 -21.98,31.32 -8.02,11.19 -16.59,21.36 -25.71,30.48 -9.13,9.12 -18.67,16.46 -28.62,21.98 -9.95,5.53 -20.32,7.47 -31.11,5.81 -8.01,-1.38 -13.62,-4.63 -16.8,-9.75 -3.17,-5.11 -5.18,-10.85 -6.01,-17.21 -9.13,9.68 -18.94,17.08 -29.45,22.19 -10.51,5.12 -22.81,6.71 -36.91,4.77 -11.62,-1.94 -19.84,-5.81 -24.68,-11.61 -3.88,-4.65 -6.2,-10.28 -6.97,-16.88l-0.49 0.5c-9.26,9.27 -18.94,16.67 -29.03,22.19 -10.09,5.53 -20.53,7.47 -31.31,5.81 -7.47,-1.38 -13.06,-4.43 -16.8,-9.12 -3.73,-4.7 -6.01,-10.23 -6.84,-16.59 -8.85,9.4 -18.53,16.52 -29.03,21.35 -10.51,4.85 -22.54,6.3 -36.08,4.36 -11.61,-1.94 -19.84,-5.81 -24.68,-11.61 -3.73,-4.48 -6.02,-9.86 -6.88,-16.15 -9.54,9.21 -19.41,17.15 -29.62,23.83 -10.37,6.77 -21.5,13.06 -33.39,18.87 -4.98,10.51 -10.3,20.6 -15.97,30.28 -5.67,9.68 -12.1,18.39 -19.29,26.13 -7.19,7.75 -15.28,14.24 -24.27,19.49 -8.98,5.25 -19,8.71 -30.07,10.37 -14.1,2.21 -26.19,0.9 -36.29,-3.94 -10.09,-4.84 -17.07,-11.13 -20.94,-18.87 -3.87,-7.74 -3.8,-16.11 0.21,-25.09 4.01,-8.99 13.07,-16.66 27.17,-23.02 11.62,-5.53 24.27,-10.44 37.95,-14.72 13.68,-4.28 27.3,-8.78 40.85,-13.48 2.49,-4.7 4.76,-9.6 6.84,-14.72 2.08,-5.11 4.22,-10.44 6.43,-15.97 0,-0.55 0.27,-1.11 0.83,-1.66 -9.4,9.68 -19.29,17.55 -29.66,23.64 -10.36,6.09 -21.22,8.3 -32.55,6.63 -4.98,-0.83 -9.2,-2.56 -12.65,-5.18 -3.45,-2.63 -6.08,-5.8 -7.87,-9.54 -1.8,-3.73 -2.91,-7.81 -3.32,-12.24 -0.41,-4.42 -0.2,-8.85 0.62,-13.27l0.52 -3.02c-6.48,4.26 -13.98,7.89 -22.5,10.9 -3.05,6.08 -8.3,11.27 -15.76,15.56 -7.46,4.28 -15.76,7.53 -24.88,9.74 -9.13,2.21 -18.25,3.25 -27.38,3.11 -9.12,-0.14 -16.86,-1.59 -23.22,-4.36 -4.42,-1.94 -7.46,-4.84 -9.13,-8.71 -1.65,-3.87 -1.73,-7.95 -0.2,-12.24 1.52,-4.28 4.56,-8.37 9.12,-12.24 4.56,-3.87 10.99,-6.77 19.28,-8.7 4.14,-1.11 8.29,-1.87 12.44,-2.29 4.15,-0.41 8.16,-0.9 12.03,-1.45 -0.83,-3.87 -1.86,-8.29 -3.11,-13.27 -1.24,-4.98 -2.28,-10.02 -3.11,-15.14 -0.84,-5.12 -1.32,-10.09 -1.45,-14.93 -0.14,-4.84 0.62,-9.33 2.28,-13.47 0.83,-2.22 0.97,-3.46 0.41,-3.74 -0.55,-0.27 -1.52,0.69 -2.9,2.91 -1.94,2.76 -3.66,5.25 -5.18,7.46 -1.52,2.22 -2.97,4.35 -4.36,6.43 -1.38,2.08 -2.83,4.29 -4.35,6.64 -1.52,2.35 -3.25,5.04 -5.18,8.08zm-332.62 -137.34c4.15,1.93 6.85,4.91 8.09,9.05 1.25,4.08 1.18,8.16 -0.2,12.1 -1.38,3.94 -4.08,7.25 -8.09,9.81 -4.01,2.62 -9.19,3.39 -15.55,2.28 -8.3,0 -15.76,0.15 -22.4,0.41 -6.63,0.28 -13.06,0.76 -19.28,1.45 -6.23,0.69 -12.65,1.39 -19.29,2.08 -6.63,0.69 -14.1,1.45 -22.4,2.28 -13.54,1.39 -25.51,0.97 -35.87,-1.24 -10.36,-2.21 -19.15,-5.32 -26.33,-9.26 -7.19,-4.01 -12.72,-8.51 -16.59,-13.55 -3.87,-5.04 -5.94,-9.95 -6.22,-14.58 -0.55,-7.4 1.39,-14.86 5.81,-22.33 4.43,-7.46 10.58,-14.66 18.46,-21.57 7.88,-6.9 16.94,-13.41 27.17,-19.49 10.23,-6.09 20.74,-11.61 31.52,-16.58 10.79,-4.98 21.42,-9.34 31.94,-13.07 10.5,-3.73 19.9,-6.56 28.2,-8.5 12.72,-3.04 27.03,-5.25 42.93,-6.64 15.9,-1.38 32.08,-1.38 48.53,0 16.45,1.38 32.56,4.29 48.31,8.72 15.76,4.42 29.86,10.78 42.31,19.08 12.44,8.3 22.46,18.59 30.07,30.9 7.6,12.3 11.54,27.16 11.82,44.58 0.55,25.44 -3.04,48.95 -10.79,70.51 -7.74,21.56 -17.97,42.24 -30.69,62 -12.71,19.77 -26.89,39.2 -42.51,58.28 -15.62,19.08 -31.03,38.85 -46.24,59.31 -2.77,2.49 -7.4,3.74 -13.89,3.74 -6.5,0 -12.93,-0.83 -19.29,-2.49 -6.36,-1.66 -11.82,-4.01 -16.38,-7.05 -4.56,-3.04 -6.15,-6.36 -4.77,-9.95 3.87,-11.89 10.58,-23.98 20.11,-36.29 9.54,-12.3 19.98,-24.95 31.31,-37.95 11.34,-12.99 22.81,-26.47 34.43,-40.44 11.62,-13.96 21.57,-28.48 29.87,-43.55 8.29,-15.07 13.96,-30.76 17,-47.07 3.05,-16.38 1.8,-33.66 -3.73,-51.84 -3.04,-9.96 -9.88,-18.18 -20.54,-24.68 -10.64,-6.5 -23.36,-11.19 -38.15,-14.1 -14.79,-2.9 -30.76,-4.08 -47.9,-3.52 -17.15,0.54 -33.74,2.76 -49.77,6.63 -12.72,3.04 -24.95,6.77 -36.7,11.2 -11.76,4.42 -22.12,9.06 -31.11,13.89 -8.99,4.84 -16.11,9.48 -21.36,13.9 -5.25,4.43 -7.67,8.3 -7.25,11.61 0.41,3.32 4.15,5.73 11.19,7.25 7.05,1.52 18.46,1.59 34.22,0.21 7.19,-0.56 14.58,-1.04 22.19,-1.45 7.61,-0.41 15,-0.48 22.19,-0.21 7.2,0.28 13.89,0.89 20.11,1.87 6.23,0.97 11.41,2.42 15.55,4.29zm656.96 193.75c4.15,0.55 8.78,-0.91 13.89,-4.36 5.12,-3.46 10.44,-8.37 15.97,-14.73 5.53,-6.36 11.06,-13.82 16.59,-22.39 5.53,-8.58 10.64,-17.7 15.35,-27.37 1.38,-3.05 2.69,-6.09 3.94,-9.13 1.24,-3.04 2.56,-6.08 3.94,-9.12 1.38,-3.32 2.63,-7.33 3.73,-12.03 1.11,-4.7 0.56,-7.74 -1.65,-9.12 -5.53,-1.66 -11.96,0.27 -19.29,5.81 -7.33,5.53 -14.58,12.86 -21.78,21.98 -7.19,9.13 -13.82,19.07 -19.9,29.86 -6.08,10.79 -10.78,20.46 -14.1,29.03 -2.49,6.91 -2.97,12.17 -1.45,15.76 1.52,3.59 3.11,5.53 4.78,5.81zm249.26 -82.54l0 -0.41c0.28,-0.83 0.89,-2.42 1.86,-4.77 0.97,-2.35 1.8,-4.98 2.49,-7.88 0.69,-2.9 1.11,-5.53 1.25,-7.88 0.14,-2.35 -0.48,-3.94 -1.87,-4.77 -5.53,-1.66 -11.96,0.27 -19.28,5.81 -7.33,5.53 -14.59,12.86 -21.78,21.98 -7.19,9.13 -13.82,19.07 -19.9,29.86 -6.08,10.79 -10.78,20.46 -14.11,29.03 -2.49,6.91 -2.97,12.17 -1.45,15.76 1.52,3.59 3.11,5.53 4.77,5.81 4.14,0.55 8.78,-0.91 13.89,-4.36 5.12,-3.46 10.37,-8.37 15.76,-14.73 5.39,-6.36 10.85,-13.82 16.38,-22.39 5.53,-8.58 10.64,-17.7 15.35,-27.37l6.63 -13.69zm-472.8 180c8.01,-2.21 15.48,-5.81 22.39,-10.78 6.91,-4.98 13.41,-11.06 19.49,-18.25 -6.91,2.49 -13.82,5.05 -20.73,7.68 -6.91,2.62 -13.97,5.46 -21.15,8.5 -3.6,1.39 -6.64,3.11 -9.13,5.19 -2.49,2.08 -3.94,3.94 -4.35,5.6 -0.41,1.66 0.34,2.84 2.28,3.53 1.94,0.7 5.67,0.21 11.21,-1.45z"/>
  <path class="fil1" d="M645.87 138.17l108.72 -33.19 3.21 -17.39 -111.93 50.58zm-139.31 -29.63l133.2 36.43 130.47 -37.79 -17.39 159.76 -49.43 14.36 -7.56 -72.81c-21.95,4.55 -26.43,28.21 -22.74,60.83l-28.1 -20.23c-17.23,-13.16 -30.31,-32.26 -44.17,-51.24 -10.73,-11.66 -25.27,-2.72 -19.12,9.1 11.56,19.42 24.52,38.48 39.74,56.98l-25.98 -18.04c-10.54,-10.77 -17.76,-22.64 -24.62,-34.65 -5.58,-5.44 -16.46,-0.31 -11.62,8.77l17.96 34.77 15.75 12.63 -23.94 -11.53 -15.37 -23.28c-6.9,-9.44 -19.06,1.92 -11.15,13.42l27.49 35.49 -45.1 -14.59 -18.31 -158.39zm24.64 -31.72l99.79 60.88 -99.79 -30.44 0 -30.44zm209.88 -6.41l-97.51 64.32 94.3 -44.63 3.21 -19.68z"/>
  <path class="fil1" d="M98.26 393.3c-2.52,5.82 -4.84,11.48 -6.98,17.01 -2.13,5.53 -3.69,9.65 -4.65,12.36 -1.17,3.68 -3.59,5.96 -7.27,6.83 -3.68,0.87 -7.41,0.82 -11.19,-0.15 -3.78,-0.97 -7.03,-2.76 -9.74,-5.38 -2.72,-2.61 -3.69,-5.57 -2.91,-8.86 2.91,-11.62 6.89,-22.58 11.92,-32.84 5.04,-10.28 10.08,-21.03 15.12,-32.27 1.74,-3.68 1.94,-6.2 0.58,-7.56 -1.36,-1.36 -3.88,-0.78 -7.56,1.75 -1.74,1.16 -3.73,2.62 -5.96,4.36 -2.23,1.74 -4.4,3.63 -6.53,5.66 -2.13,2.04 -4.12,4.17 -5.96,6.4 -1.84,2.22 -3.34,4.51 -4.51,6.83 -2.51,5.24 -5.03,10.61 -7.55,16.14 -2.52,5.52 -4.84,10.75 -6.98,15.7 -2.14,4.94 -3.98,9.45 -5.53,13.52 -1.54,4.08 -2.71,7.37 -3.48,9.89 -1.17,3.68 -3.49,5.96 -6.98,6.83 -3.49,0.87 -6.98,0.78 -10.47,-0.29 -3.49,-1.07 -6.44,-2.91 -8.87,-5.52 -2.43,-2.62 -3.25,-5.57 -2.47,-8.86 1.16,-5.24 2.81,-11.2 4.94,-17.88 2.13,-6.69 4.65,-13.81 7.56,-21.37 2.9,-7.55 6.2,-15.36 9.88,-23.4 3.69,-8.05 7.56,-15.84 11.63,-23.4 2.52,-4.46 6.06,-7.95 10.61,-10.47 4.56,-2.51 9.64,-2.71 15.27,-0.58 3.87,1.55 6.54,3.44 7.99,5.66 1.45,2.23 1.98,4.7 1.6,7.42 4.26,-3.29 8.77,-6.16 13.52,-8.57 4.75,-2.43 9.4,-4.12 13.95,-5.09 4.56,-0.97 8.77,-1.11 12.65,-0.43 3.87,0.68 7.17,2.47 9.88,5.38 3.11,3.29 4.46,7.56 4.07,12.79 4.46,-3.88 9.3,-7.31 14.53,-10.32 5.24,-3 10.37,-5.23 15.41,-6.68 5.04,-1.46 9.79,-1.89 14.25,-1.31 4.45,0.58 8.14,2.42 11.04,5.52 3.3,3.68 4.41,8.63 3.35,14.83 -1.07,6.2 -3.11,12.65 -6.1,19.33 -3.01,6.69 -6.25,13.13 -9.74,19.33 -3.5,6.21 -6.01,11.05 -7.56,14.54 -3.68,8.52 -5.09,13.76 -4.22,15.7 0.87,1.94 3.25,1.26 7.13,-2.04 2.33,-1.94 4.99,-4.6 8,-7.99 3,-3.39 6.05,-7.02 9.15,-10.9 3.11,-3.88 6.06,-7.75 8.86,-11.63 1.69,-2.33 3.27,-4.53 4.71,-6.57 1.42,-3.46 2.91,-6.85 4.45,-10.14 3.49,-7.46 7.02,-14.15 10.61,-20.06 3.59,-5.91 6.54,-10.22 8.87,-12.93 3.68,-4.07 7.94,-6.25 12.79,-6.54 4.84,-0.29 9.01,0.63 12.5,2.76 3.49,2.13 5.77,5.14 6.83,9.02 1.07,3.88 -0.24,8.14 -3.92,12.8 -1.75,2.13 -3.97,5.38 -6.69,9.74 -2.71,4.36 -5.52,9.15 -8.43,14.39 -2.91,5.23 -5.77,10.61 -8.57,16.13 -2.81,5.53 -5.19,10.52 -7.12,14.97 -1.94,4.46 -3.2,7.99 -3.78,10.61 -0.58,2.62 -0.2,3.73 1.17,3.34 4.65,-2.32 9.15,-5.42 13.51,-9.3 4.36,-3.88 8.53,-8.09 12.5,-12.65 3.97,-4.55 7.8,-9.3 11.48,-14.25 3.69,-4.94 7.36,-9.74 11.05,-14.38 2.71,-6.21 5.57,-12.11 8.57,-17.74 3.01,-5.62 6.44,-10.66 10.32,-15.12 2.72,-4.45 6.45,-7.42 11.2,-8.87 4.75,-1.45 9.15,-1.64 13.23,-0.58 4.06,1.06 7.12,3.39 9.15,6.98 2.03,3.59 1.7,8.28 -1.02,14.1 -0.38,0.77 -1.26,2.23 -2.62,4.36 -1.36,2.13 -3,4.7 -4.94,7.71 -1.94,3 -4.02,6.3 -6.25,9.88 -2.23,3.59 -4.41,7.31 -6.54,11.19 -2.32,4.46 -4.55,8.96 -6.68,13.52 -2.13,4.55 -4.02,8.77 -5.67,12.65 -1.64,3.88 -3.05,7.26 -4.21,10.17 -1.16,2.91 -1.94,4.84 -2.33,5.81l-0.58 1.46c7.17,-4.45 13.43,-9.2 18.75,-14.24 5.34,-5.04 10.09,-9.98 14.25,-14.83 4.16,-4.84 7.85,-9.55 11.05,-14.1 3.2,-4.56 6.15,-8.58 8.86,-12.07 2.32,-2.9 4.8,-4.79 7.41,-5.66 2.62,-0.87 4.8,-0.87 6.55,0 1.74,0.87 2.76,2.52 3.05,4.94 0.29,2.43 -0.63,5.38 -2.76,8.87 -5.42,9.11 -11.05,17.2 -16.85,24.27 -5.82,7.07 -11.63,13.42 -17.45,19.04 -6.78,6.59 -13.81,12.26 -21.07,17.01 -7.27,4.75 -15.07,9.15 -23.4,13.23 -3.49,7.37 -7.22,14.44 -11.2,21.22 -3.97,6.78 -8.48,12.89 -13.51,18.31 -5.04,5.43 -10.71,9.98 -17.01,13.67 -6.3,3.68 -13.33,6.1 -21.08,7.26 -9.89,1.55 -18.36,0.63 -25.45,-2.76 -7.07,-3.39 -11.96,-7.81 -14.68,-13.22 -2.71,-5.43 -2.67,-11.29 0.15,-17.6 2.81,-6.3 9.16,-11.68 19.04,-16.13 8.14,-3.88 17.01,-7.32 26.6,-10.33 9.59,-3 19.14,-6.14 28.64,-9.44 1.75,-3.3 3.34,-6.74 4.79,-10.32 1.46,-3.59 2.96,-7.32 4.51,-11.19 0,-0.38 0.2,-0.77 0.59,-1.16 -6.59,6.78 -13.52,12.3 -20.79,16.57 -7.27,4.27 -14.88,5.81 -22.82,4.65 -3.49,-0.58 -6.44,-1.79 -8.87,-3.63 -2.42,-1.84 -4.26,-4.08 -5.53,-6.69 -1.26,-2.62 -2.03,-5.48 -2.32,-8.58 -0.06,-0.67 -0.1,-1.34 -0.13,-2.01l-0.6 0.71c-3.68,4.36 -7.37,7.99 -11.05,10.89 -3.29,2.72 -7.71,4.9 -13.23,6.55 -5.53,1.65 -11.05,2.32 -16.58,2.04 -5.52,-0.29 -10.41,-1.75 -14.68,-4.37 -4.27,-2.62 -6.79,-6.83 -7.56,-12.64 -0.19,-4.46 0.59,-9.45 2.33,-14.97 1.74,-5.53 3.92,-11.15 6.54,-16.86 2.62,-5.72 5.38,-11.34 8.28,-16.86 2.91,-5.53 5.43,-10.61 7.56,-15.26 1.75,-3.68 1.94,-6.2 0.59,-7.56 -1.36,-1.36 -3.88,-0.78 -7.56,1.75 -3.1,2.13 -6.59,4.84 -10.47,8.14 -3.87,3.29 -7.17,6.88 -9.88,10.75 -3.29,6.21 -6.54,11.97 -9.74,17.31 -3.19,5.33 -5.37,9.64 -6.53,12.93zm86.05 88.08c5.62,-1.55 10.85,-4.07 15.7,-7.56 4.85,-3.49 9.4,-7.75 13.66,-12.79 -4.84,1.75 -9.69,3.53 -14.54,5.38 -4.84,1.85 -9.79,3.83 -14.82,5.96 -2.52,0.97 -4.65,2.18 -6.4,3.63 -1.74,1.45 -2.76,2.76 -3.05,3.92 -0.29,1.16 0.25,1.98 1.6,2.47 1.36,0.48 3.97,0.15 7.85,-1.02z"/>
  <g id="_2175286562160">
   <path class="fil2" d="M635.56 113.73l1.87 0.52 1.76 10.91c-5.46,-0.15 -4.55,-1.63 -4.36,-3.73l0.73 -7.71zm-6.1 -0.5c0.37,0.48 0.92,1.25 1.33,1.58 0.29,-0.18 1.67,-1.09 1.75,-1.17l0.69 0.8c-0.58,0.53 -1.53,1.1 -2.23,1.59 -0.67,0.47 -1.68,1.23 -2.34,1.56 -0.19,-0.27 -0.4,-0.46 -0.59,-0.76 0.11,-0.19 0,-0.04 0.15,-0.19 0.38,-0.37 1.37,-0.85 1.71,-1.27 -0.26,-0.5 -0.98,-1.26 -1.32,-1.63 -0.45,0.32 -1.5,1.1 -1.99,1.29 -0.34,-0.31 -0.43,-0.4 -0.64,-0.79 0.6,-0.53 1.54,-1.05 2.23,-1.56 0.82,-0.61 1.47,-1.03 2.24,-1.55 0.3,0.2 0.47,0.43 0.67,0.74 -0.24,0.39 -0.67,0.52 -1.27,0.97 -0.11,0.08 -0.06,0.02 -0.19,0.14 -0.21,0.19 -0.11,0.1 -0.2,0.23zm2.91 -4.82c0.48,0.18 1.05,0.69 1.6,0.96 2.13,1.04 2.95,0.41 3.52,1.67 0.48,1.08 -0.26,1.29 -0.99,1.38 -1.58,0.18 -3.11,0.17 -4.27,-0.61 -0.16,-0.1 -0.53,-0.45 -0.66,-0.59 -0.44,-0.48 -0.45,-1.78 0.04,-2.23 0.2,-0.19 0.54,-0.43 0.75,-0.57zm-7.14 5.05l-0.66 -0.88 0.68 -1.03c-0.4,-0.64 -0.9,-1.12 -1.29,-1.71l-1.4 0.35c-0.31,-0.34 -0.48,-0.48 -0.67,-0.9l5.81 -1.5c0.22,0.19 0.52,0.54 0.73,0.83 -0.11,0.39 -1.86,3.03 -2.31,3.66 -0.32,0.44 -0.44,0.92 -0.89,1.19zm5.69 -7.89c-0.25,-0.97 -0.02,-2.31 0.74,-2.51 0.63,-0.17 1.46,0.88 1.93,1.18l4.06 2.48c0.2,0.24 0.34,0.9 0.31,1.22 -0.17,2.46 -6.39,0.07 -7.03,-2.37zm-7.8 0.06l2.57 -0.26 0.72 0.94c-1.17,0.14 -2.24,0.17 -3.39,0.27 -0.61,0.06 -0.85,0.28 -1.24,0.56 -0.47,0.33 -0.71,0.49 -1.12,0.76l-0.67 -0.75c0.32,-0.38 0.72,-0.57 1.1,-0.82 1.68,-1.09 0.79,-1.75 2.16,-3.83 0.02,0.01 0.06,0.01 0.07,0.05 0.07,0.24 0.96,0.35 0.53,1.35 -0.26,0.58 -0.57,1.09 -0.73,1.72zm11.33 -4.9c0.48,-0.44 2.32,-0.45 4.64,-2.87 1.25,-1.31 0.98,-2.52 4.69,-0.31 0.86,0.51 1.84,1.44 2.36,2.26 1.37,2.19 0.63,5.32 -0.25,7.55 -0.87,2.21 -2.01,4.27 -2.75,6.59 -0.48,1.52 -0.64,2.43 0.07,3.78 0.23,0.43 0.54,1.28 0.76,1.6 0.31,0.44 0.83,0.91 1.01,1.36 -0.2,0.16 -0.34,0.22 -0.57,0.4 -0.73,0.55 -3.98,3.03 -4.52,3.25 -0.06,-2.38 -1.4,-8.33 -1.29,-10.43 0.18,-3.33 2.44,-7.43 2.65,-9.04 -0.19,0.13 -0.65,0.59 -1.03,0.68 -0.54,0.13 -1.82,-0.81 -2.38,-1.15 -0.24,-0.14 -0.34,-0.19 -0.57,-0.32 -0.11,-0.06 -0.17,-0.09 -0.28,-0.18l-0.19 -0.19c-0.02,-0.02 -0.04,-0.05 -0.06,-0.07 4.09,-0.1 3.5,-1.43 4.64,0.45 0.27,-1.21 0.21,-1.82 -0.3,-2.69 -1.8,-0.21 -5.02,2.96 -6.62,-0.67zm0.17 2.44c-0.64,-0.23 -1.38,-0.55 -1.94,-0.94 -0.92,-0.64 -1.12,-0.39 -1.4,-1.67 -0.58,-2.67 2.53,-1.65 3.34,-0.98 -0.64,0.31 -1.21,0.77 -0.96,1.79 0.18,0.78 0.67,1.22 0.96,1.8zm26.79 1.4l-0.79 0.97c-0.34,0.34 -0.12,0.03 -0.27,0.43 1.1,0 1.22,-0.15 1.01,1.22 -0.67,0.21 -0.56,-0.12 -1.11,0.23 0.18,0.08 0.13,0.18 0.13,0.51 0,0.01 -0.03,0.32 -0.03,0.32 -0.09,0.34 0.12,0.02 -0.12,0.17 -0.04,0.23 -0.07,0.16 -0.49,0.17 -0.45,0 -0.36,0.03 -0.54,-0.16l-0.02 -1.03c-0.27,-0.34 -0.08,-0.13 -0.2,-0.1 -0.2,0.05 -0.89,1.12 -1.12,1.35l-0.22 0.17c-0.21,0.14 -1.26,1.29 -1.51,1.58l-3.05 3.26c-0.5,0.56 -1.04,1.16 -1.49,1.73 -0.93,-0.33 -1.69,-1.21 -1.89,-2.47 -0.14,-0.94 -0.18,-3.16 0.28,-3.81 1.35,-0.4 2.74,1.45 3.46,1.85 0.78,-0.69 4.19,-4.08 4.54,-4.99 -0.34,-0.21 -1,-0.72 -1.18,-1.1l1.23 -1.03c0.31,0.33 0.73,0.72 1.14,0.87 0.61,-0.28 1.55,-1.31 1.86,-1.8 -2.22,-2.95 -1.59,-4.32 0.86,-6.1 1.46,-1.07 3.56,0.57 3.54,2.11 -0,0.99 -0.44,1.79 -0.92,2.32 -0.53,0.58 -2.61,3.05 -3.12,3.33zm-1.91 2.14l-0.36 0.33c0.18,0.3 -0.08,0.19 0.49,0.25 0.08,0 0.49,-0.03 0.6,-0.03l-0.08 -1.15 -0.43 0.44c-0.13,0.14 -0.04,0.05 -0.21,0.16zm-39.81 -5.41l2.54 -0.19 0.73 0.93c-0.67,0.22 -2.48,0.2 -3.31,0.24 -0.97,0.06 -1.24,0.67 -2.47,1.28 -0.4,-0.27 -0.47,-0.37 -0.64,-0.89 0.71,-0.38 1.77,-0.93 2.11,-1.71 0.39,-0.89 0.71,-1.98 1.23,-2.75 0.02,0.01 0.06,0.01 0.07,0.06l0.5 0.55c0.24,0.34 0.23,0.32 0.01,0.78 -0.26,0.56 -0.6,1.15 -0.78,1.7zm18.08 -3.05c-2.15,1.47 -2.66,1.03 -4.45,-0.23 -0.28,-2.23 0.86,-3.15 2.25,-2.62 0.31,0.12 1.11,0.84 1.4,1.09 0.55,0.46 0.65,0.92 0.8,1.77zm-23.06 2.09l-0.7 -0.83c0.34,-0.18 0.85,-0.51 1.14,-0.7 0.93,-0.6 2.59,-1.86 3.5,-2.25l0.63 0.79c-0.37,0.41 -3.84,2.48 -4.57,2.99zm-1.62 -5.15l3.65 -1.04c0.23,0.18 0.84,0.97 0.96,1.3l-3.46 2.12c-0.35,0.2 -0.88,0.56 -1.22,0.7l-0.36 -0.35c-0.12,-0.17 -0.12,-0.25 -0.26,-0.39l3.51 -2.17c-1.06,0.1 -3.4,1.22 -4.2,1.17 -0.24,-0.25 -0.42,-0.47 -0.52,-0.9l2.93 -2.86c-0.86,0.33 -2.9,1.8 -3.58,2.02 -0.31,-0.25 -0.42,-0.41 -0.55,-0.81 1.23,-0.61 3.69,-2.35 4.71,-2.76l0.49 0.57c0.17,0.27 0.31,0.41 0.43,0.71l-2.54 2.68zm-6.7 -6.46l6.04 -0.96 0.56 0.88c-0.23,0.44 -3.38,4.33 -3.69,4.52l-0.61 -0.86c0.14,-0.3 0.61,-0.81 0.79,-1.03l-1.12 -1.78 -1.48 0.18 -0.5 -0.95zm-0.99 -3.31c0.34,0.67 1.05,1.61 1.29,2.28l-0.75 0.39c-0.32,-0.32 -1.82,-2.81 -1.96,-3.27l4.86 -2.44c0.27,0.25 0.45,0.52 0.58,0.93 -0.62,0.26 -3.7,1.8 -4.04,2.12zm-2.85 -6.31l0.61 0.76c-1.33,1.81 0.51,2.37 0.92,2.12 0.6,-0.72 -0.11,-1.41 -0.12,-2.43 -0.02,-1.68 2.29,-2.3 3.35,-0.02 0.54,1.15 0.06,1.64 -0.53,2.18 -0.28,-0.17 -0.04,0.02 -0.23,-0.18l-0.42 -0.62c0.27,-0.57 0.63,-0.63 0.09,-1.42 -0.22,-0.33 -1.05,-0.84 -1.1,0.06 -0.07,1.17 1.11,2.33 -0.34,3.27 -2.14,1.37 -4.52,-2.32 -2.24,-3.7zm51.48 4.93l0.05 -6.94c0.49,-0.08 0.91,-0.11 1.33,0.04l0.02 4.56c0,0.79 -0.12,1.18 0.19,1.52l0.19 -0.15 0.18 -0.16 0.19 -0.04 0.17 -0.17 0.18 -0.09c0.64,-0.34 1.36,-0.95 1.97,-1.32l0.01 -4.17 1.21 -0 0.04 3.12c1.47,-0.66 3.17,-3.3 4.1,-2.77 1.31,0.75 -2.49,6.1 -3.06,6.76 -2.14,2.48 -2.61,3.21 -5.34,5.25 -1.96,1.47 -4.2,2.76 -6.83,3.77 -1.23,0.47 -2.7,0.9 -4.1,1.19 -0.9,0.18 -4.7,0.5 -4.71,0.66 -0.05,0.52 -0.12,1 -0.47,1.38 -0.35,0.37 -0.53,0.76 -0.89,1.01 -0.3,-0.25 -0.6,-0.65 -0.84,-0.97 -0.43,-0.55 -0.2,-0.79 -0.29,-1.61 -4.84,-0.47 -8.98,-1.96 -12.85,-4.62 -1.42,-0.98 -2.91,-2.23 -4.09,-3.46 -1.72,-1.81 -3.09,-3.67 -4.33,-5.81 -0.45,-0.78 -1.89,-2.71 -0.97,-3.53 0.59,-0.38 1.16,0.37 2.16,1.21 0.47,0.39 1.43,1.36 1.93,1.57l0.01 -3.14 1.21 0 0.04 4.13c0.64,0.42 2.41,1.77 3.09,1.98l0.02 -6.11 1.22 -0.01 0.03 6.94c1.09,0.4 2.42,1.37 3.62,1.63l0 -8.14 1.21 -0.01 0.04 8.66c0.74,0.31 2.97,0.99 3.79,1.01l0 -9.68 1.23 0.01 0.03 9.93c1.26,0.22 2.69,0.36 4.07,0.38 0,-0.48 -0.16,-9.97 0.11,-10.49l1.09 0.05 0.01 10.48c0.84,0.03 3.52,-0.19 4.18,-0.44l0.05 -9.88 1.22 -0.03 0.04 9.65c0.76,0.05 3.02,-0.71 3.78,-0.97l0.01 -8.65 1.22 -0.03 0.04 8.17c0.76,-0.23 3,-1.25 3.5,-1.66zm21.59 -6.96c0.86,0.33 2.63,1.57 3.56,1.96 -0.37,1.8 -5.37,9.37 -6.79,11.48 -0.5,0.73 -1.05,1.46 -1.55,2.17l-3.18 4.11 -1.27 -0.55c0.18,-0.84 1.15,-1.49 1.21,-2.21l-5.37 -0.11 0.12 -1.34 5.76 0.19 -4.05 -2.55c0.09,-0.52 0.07,-0.35 0.37,-0.78 0.21,-0.29 0.22,-0.35 0.48,-0.57 1.12,0.55 3.74,2.73 4.64,3.08 0.42,-0.85 4.06,-5.41 4.5,-6.53 -0.33,-0.32 -0.68,-0.53 -1.08,-0.84 -0.35,-0.29 -0.82,-0.67 -1.15,-0.86l0.77 -1.2c0.81,0.38 1.54,1.24 2.41,1.6 0.18,-0.5 0.57,-0.99 0.81,-1.52 -0.58,-0.64 -1.61,-0.95 -2.15,-1.58 0.15,-0.47 0.41,-0.72 0.58,-1.18 0.62,0.11 1.38,0.92 2.29,1.37 0.27,-0.31 0.65,-1.08 0.69,-1.54 -0.79,-0.38 -1.55,-0.96 -2.31,-1.28 0.14,-0.58 0.46,-0.8 0.72,-1.3zm-75.3 1.72l-0.45 -0.92 5.16 -2.37 0.42 0.97 -5.13 2.32zm-0.44 -4.31l0.98 -0.41 0.86 1.79 -0.95 0.38c-0.47,-0.56 -0.58,-1.19 -0.88,-1.75zm75.3 -2.71l0.55 -1.21 3.69 1.56 0.22 1.38 2.6 -0.64 -1.95 5.16c-0.29,-0.18 -0.02,0.09 -0.32,-0.25 -0.15,-0.18 -0.05,-0.05 -0.18,-0.27l-1.21 -1.8c-1.14,0.22 -1.34,0.8 -2.47,0.28 -0.6,-0.27 -1.68,-0.76 -2.32,-0.94 0.07,-0.45 0.32,-0.94 0.59,-1.26 2.36,0.4 2.11,1.49 4.07,0.5 -0.23,-1.13 -0.25,-1.23 -1.26,-1.64 -0.62,-0.24 -1.58,-0.49 -2.02,-0.9zm-77.53 -0.48c0.19,0.9 0.78,1.56 1.06,2.4 -0.23,0.23 -0.41,0.28 -0.78,0.37 -0.59,-0.73 -1.23,-2.38 -1.64,-3.3 0.27,-0.23 4.66,-2.03 5.13,-2.11l0.43 0.86 -4.21 1.77zm37.69 1.63c-2.56,0.11 -5.33,0 -7.91,0 -2.63,-0 -5.26,-0.02 -7.88,-0.02 -2.99,-0.01 -4.71,0.25 -6.14,-1.75 -1.24,-1.74 -1.06,-4.55 0.32,-5.87 1.57,-1.51 4.11,-1.21 6.72,-1.18 1.31,0.01 2.62,0.03 3.94,0.04 2.18,0.02 1.88,-0.29 3.05,0.87 0.98,0.97 7.65,7.41 7.9,7.91zm41.95 -5.27l5.4 2.07 -0.42 1.23c-0.46,0.03 -4.58,-1.71 -5.37,-2.01l0.4 -1.29zm-13.56 5.31l-22.13 -0.03c0.3,-0.57 6.66,-6.69 7.68,-7.7 1.15,-1.14 0.78,-0.88 2.93,-0.86l11.37 0.11c-0.18,1.45 -0.74,2.47 -0.71,4.25 0.03,1.84 0.59,2.76 0.86,4.23zm-68.86 -8.52l5.71 0.84c0.26,0.08 0.44,-0.07 0.53,1.23 -0.8,0.36 -1.7,1.02 -2.52,1.53l-2.58 1.49 -0.23 -1.11 1.11 -0.64 -0.43 -2.09c-1.25,-0.17 -1.48,0.11 -1.59,-1.25zm88.64 3.05c-0.38,-0.05 -0.83,-0.13 -1.16,-0.34l0.49 -2.15c0,-0.03 0.07,-0.33 0.07,-0.36 -0.02,-0.32 0.04,-0.12 -0.11,-0.32l-1.57 -0.19 0.27 -1.01c0.15,-0.3 0.08,-0.16 0.21,-0.32l3 0.44c-0.03,0.55 -0.94,3.84 -1.2,4.25zm-57.41 -5.29c0.21,-0.41 11.72,-11.67 12.37,-12.32 2.02,2.06 4.1,4.09 6.18,6.13 0.88,0.85 5.92,5.65 6.19,6.19 -1.87,1.98 -4.54,4.31 -6.15,6.11 -0.41,0.47 -5.67,5.78 -6.22,6.15l-12.37 -12.26zm-32.16 -4.78l5.67 -0.45c0.1,1.84 1.08,4.36 -2.48,4.63 -1.26,0.1 -2.2,-0.25 -2.67,-0.99 -0.41,-0.63 -0.62,-2.39 -0.52,-3.19zm-0.08 -1.06l0.07 -1.1c0.41,-0.13 1.05,-0.27 1.33,-0.47l0.09 -2.06c-0.41,-0.14 -0.89,-0.28 -1.26,-0.56l0.07 -1.04 5.57 2.32 -0.04 1.07c-0.39,0.24 -5.1,1.71 -5.83,1.84zm47.77 -4.85c2.71,-0.17 14.47,0 18,0 -0.17,0.31 -0.27,0.34 -0.55,0.56l-0.71 -0.4 -0.75 0.6c0.17,0.33 0.47,0.46 0.76,0.66l0.72 -0.57 0.77 0.43c0.26,-0.31 0.44,-0.34 0.64,-0.72 -0.02,-0.03 -0.05,-0.09 -0.06,-0.08 -0.01,0.02 -0.05,-0.06 -0.06,-0.07l-0.44 -0.35c6.51,-1.19 8.05,8.2 0.72,8.19l-10.37 -0.08c-0.7,-0.02 -1.1,-0.66 -1.88,-1.44 -1.15,-1.15 -2.24,-2.21 -3.4,-3.35 -0.59,-0.59 -1.11,-1.09 -1.7,-1.68 -0.5,-0.5 -1.29,-1.18 -1.67,-1.69zm-27.73 -0.06l21.38 0.02c-0.23,0.56 -0.4,0.55 -0.87,1.03 -2.1,2.12 -4.48,4.33 -6.45,6.38 -0.44,0.47 -0.41,0.58 -1.3,0.57l-5.53 -0.05c-2.35,-0.02 -5.09,0.09 -7.38,-0.08 0.22,-1.22 0.84,-2.2 0.97,-3.79 0.17,-2.12 -0.43,-2.59 -0.81,-4.1zm-19.16 -3.05c1.17,0.05 1.77,0.67 3.05,0.25 0.92,-0.31 2,-0.72 2.95,-0.9l-0.25 1.13 -2.46 0.7c0.22,0.49 1.41,1.33 1.86,1.65l-0.27 1.19c-2.89,-1.92 -1.27,-2.42 -5.14,-3.02l0.26 -1zm83.03 -0.47c-0.13,-0.17 -0.05,-0.01 -0.19,-0.31 -0.04,-0.08 -0.06,-0.15 -0.09,-0.25 -0.06,-0.18 -0.09,-0.32 -0.14,-0.51l1.06 -0.37 -0.29 -1.09 1.04 -0.32 0.32 1.01c-0.15,0.14 -0.01,0.05 -0.28,0.2l-0.74 0.26 0.25 0.95c0.68,-0.17 0.69,-0.33 1.19,-0.25l0.27 0.97c-0.34,0.24 -0.61,0.34 -1.06,0.38l-0.29 -1.02 -1.06 0.34zm-47.87 56.94c-0.49,-0.33 -1.32,-1.43 -1.92,-1.99 -0.81,-0.77 -1.26,-1.37 -1.89,-2.17 -0.28,-0.34 -0.59,-0.63 -0.91,-1 -1.82,-2.15 -4.7,-5.83 -6.14,-7.94l-3.3 -4.81c-5.94,-8.94 -14.03,-24.73 -12.1,-35.36 0.43,-2.41 1.3,-4.04 2.6,-5.41 4.84,-5.11 12.86,-2.71 17.8,0.48 1.56,1 2.14,1.5 3.41,2.57 0.36,0.3 1.15,0.19 1.77,0.19 2.59,0.01 5.56,-0.12 8.1,0.04 -0.64,1.23 -1.43,1.02 -2.25,1.02l-9.8 -0.02c-3.34,-0 -10.26,-0.16 -13.15,-0.01 0.34,0.96 1.71,2.2 1.56,4.9 -0.08,1.52 -1.36,4.48 -1.32,5.01l13.8 0.11c-0.05,0.38 -0.44,0.62 -0.72,0.89 -0.29,0.29 -0.6,0.53 -0.8,0.85 0.4,0.35 0.63,0.53 0.8,0.94 -2.16,-0.01 -4.33,-0.03 -6.48,-0.05 -2.15,-0.03 -3.91,-0.12 -5.4,1.03 -2.88,2.24 -2.59,6.63 0.14,8.75 1.61,1.25 3.07,1.02 5.38,1.03l16.21 0.03c0.61,-0 1.01,-0.1 1.37,0.19 0.29,0.23 0.65,0.6 0.79,0.94 -3.67,0.09 -7.48,-0.01 -11.17,-0.03 -3.71,-0.01 -7.44,0.02 -11.15,-0.02 -5.96,-0.07 -7.23,-11.36 -1.3,-13.22 -0.49,-0.21 -2.98,-0.09 -3.78,-0.13 -0.01,-0.22 -0.03,-0.49 -0.02,-0.71l0.1 -0.63 1.07 -0.08c0.53,-0.26 1.95,-4.9 0.69,-8.08 -0.62,-1.56 -0.53,-1.08 -1.9,-1.49 -0,-0.18 -0.01,-0.83 0.02,-0.97 0.08,-0.41 0.1,-0.32 0.62,-0.32 4.1,-0.01 10.86,0.19 14.32,-0.01 -0.33,-0.57 -3.3,-2.27 -4.19,-2.71 -3.41,-1.71 -7.23,-2.74 -10.8,-0.91 -4.64,2.38 -5.91,9.83 -4.75,15.02 0.39,1.76 1.01,3.61 1.61,5.25 2.09,5.67 5.9,13.14 9.2,18.29l1.3 2.07c0.47,0.76 0.84,1.36 1.38,2.12l2.8 4.06c1.54,2.2 3.28,4.12 4.48,5.78 0.73,1.02 2.33,2.68 3.23,3.74 0.3,0.34 0.57,0.48 0.61,1.02 0.04,0.47 0.1,1.36 0.05,1.79zm24.73 -55.39c2.49,0.02 4.99,0.02 7.49,0.02 2.6,-0 3.9,0.95 4.85,2.55 1.58,2.63 1.57,7.45 -1.58,9.37 -0.4,0.24 -0.94,0.35 -1.28,0.65l3.81 0.05 0.03 1.41 -1.18 0.08c-1.18,2.06 -1.64,5.9 -0.66,8.57 0.49,1.34 0.36,1.39 1.9,1.56l-0.06 1.38 -28.52 -0.03c0.11,-0.2 0.55,-0.61 0.75,-0.81 0.44,-0.44 0.53,-0.35 1.32,-0.34l10.14 0.02c4.46,0 9.1,0.14 13.54,0.02 -0.18,-0.81 -0.56,-1.57 -0.82,-2.44 -0.25,-0.84 -0.45,-1.72 -0.48,-2.69 -0.07,-2.29 1.02,-4.59 1,-5.35l-13.62 -0.14c0.17,-0.44 0.65,-0.84 1.01,-1.16 -0.16,-0.26 -0.37,-0.44 -0.62,-0.68 -0.39,-0.38 -0.51,-0.41 -0.71,-0.84 3.18,-0.12 10.53,0.6 12.83,-0.54 1.38,-0.68 2.61,-1.98 2.73,-4.02 0.12,-2.22 -1.01,-3.81 -2.14,-4.61 -1.73,-1.24 -3.26,-1 -5.62,-1l-16.89 -0.03c-0.59,0 -1.13,0.1 -1.5,-0.18 -0.25,-0.2 -0.67,-0.6 -0.72,-0.88l12.4 -0.04 0.08 -0.26c0.01,-0.02 0,-0.06 0.13,-0.2 0.54,-0.62 2.95,-2.28 3.69,-2.73 5.11,-3.15 12.23,-4.53 16.78,-0.43 5.83,5.25 2.9,16.2 0.47,23.32 -1.31,3.8 -3.07,6.72 -4.71,10.05 -1.47,3 -6.78,11.24 -8.61,13.58 -0.6,0.77 -1.04,1.48 -1.56,2.16 -0.53,0.69 -1.13,1.36 -1.64,2.08 -0.25,0.35 -0.55,0.66 -0.82,0.98 -0.37,0.44 -0.51,0.71 -0.82,1.09 -1.43,1.75 -3.01,3.32 -4.34,4.9 -0.33,0.39 -0.53,0.76 -1.1,0.94 -0.02,-0.55 0.02,-1.21 0.07,-1.76 0.06,-0.62 0.3,-0.74 0.6,-1.08 0.53,-0.61 1.13,-1.2 1.65,-1.83 3.97,-4.84 5.29,-6.5 8.86,-11.75 3.82,-5.63 9.47,-15.43 11.88,-22.48 0.58,-1.71 1.19,-3.38 1.63,-5.25 1.58,-6.76 -0.92,-17.76 -10.49,-15.88 -2.03,0.4 -3.32,1.06 -4.99,1.86l-3.12 1.95c-0.42,0.3 -0.83,0.51 -1.02,0.86zm-24.03 -6.45c2.06,-0.01 3.24,-0.16 4.72,-1.12 2.3,-1.5 2.46,-2.28 3.15,-2.75 0.53,0.29 1.08,1.55 3.16,2.74 1.69,0.96 2.5,1.18 4.72,1.12 -0.21,0.54 -2.03,3 -2.61,3.82 -0.27,0.37 -0.7,1.13 -1,1.19l-8.55 0c-0.37,-0.1 -3.52,-4.78 -3.6,-5zm48.67 -0.33c0.2,-0.19 1.77,-1.07 2.1,-1.24 0.48,-0.26 1.01,-0.24 1.43,0.02 0.95,0.58 1.98,5.38 2.23,6.57 0.78,3.74 1.19,9.05 0.28,12.77l-6.55 -0.29 0 -1.42c1.02,0.09 4.44,0.74 5.15,0.24 0.29,-0.22 0.27,-0.27 0.35,-1.01 0.04,-0.42 0.07,-0.85 0.09,-1.26 0.04,-0.93 0.04,-1.86 0,-2.78 -0.04,-1.5 -0.11,-3.73 -0.59,-4.97l-1.94 0.27 -0.4 -1.04c0.51,-0.36 1.39,-0.52 2.01,-0.65l-0.48 -1.94 -1.81 0.42 -0.48 -1.24c1.84,-0.77 2.11,-0.63 1.42,-2.04 -0.8,0.16 -1.48,0.85 -2.32,1.1l-0.5 -1.51zm-78.37 1.87c-1,-0.26 -1.42,0.86 -2.06,1.39 -1.45,1.2 -3.95,-0.1 -2.33,-2.67 0.51,-0.81 1.21,-1.04 2.52,-0.86l-0.29 0.98c-1.13,-0.07 -1.94,0.37 -1.67,1.63 0.86,0.86 1.4,-0.34 1.91,-0.86 0.48,-0.49 1.5,-1.14 2.44,-0.46 1.63,1.19 -0.74,4.5 -2.08,3.33 -0.01,-0 -0.17,-0.69 0.64,-0.89 0.12,-0.03 0.1,0 0.28,-0.06 0.55,-0.18 0.83,-0.91 0.66,-1.53zm75.64 -4.25c-0.21,-2.33 3.7,-5.59 6.07,-1.89l-0.57 0.86c-0.64,-0.39 -1.55,-1.28 -2.69,-0.73 -0.72,0.35 -1.27,1.23 -1.56,2.15 -0.51,-0.05 -0.89,-0.22 -1.25,-0.38zm-78.6 0.47c0.04,-0.08 0.13,-0.18 0.19,-0.24 0.72,-0.75 0.46,-0.39 2.51,-0.31 0.9,0.04 1.02,-0.19 1.43,-0.6 -0.43,-0.52 -1.25,-0.97 -1.77,-1.45l0.68 -0.76 4.39 3.22c-0.18,0.49 -1.97,2.41 -2.44,2.65 -0.68,0.35 -1.48,0.06 -1.88,-0.33 -0.52,-0.51 -0.45,-1.04 -0.18,-1.82 -0.86,0.16 -2.12,0.13 -2.94,-0.11l0.02 -0.25zm8.87 -4.95l0.38 0.92 -1.83 0.75c-0.26,-0.28 -0.38,-0.46 -0.48,-0.89l1.93 -0.78zm-1.85 2.3c0.47,0.58 1.36,1.53 1.62,2.09l-0.88 0.54c-0.36,-0.29 -1.34,-1.66 -1.7,-2.12 -0.45,-0.56 -1.44,-1.55 -1.63,-2.22 0.48,-0.2 0.4,-0.35 1.01,-0.44 0.26,0.58 1.12,1.56 1.58,2.14zm2.38 -4c0.55,-0.29 3.06,-0.57 3.87,-0.61 0.34,0.62 0.84,4.15 0.96,5.16l-1.13 0.06 -0.71 -4.2c-1.02,0.04 -2.31,0.44 -2.88,0.26l-0.1 -0.68zm67.6 2.02c0.68,1.4 0.85,1.07 0.49,2.95 -0.21,1.05 -0.45,2.11 -0.6,3.16 -0.53,-0.02 -0.9,-0.17 -1.21,-0.38 -0.32,-1.42 1.36,-3.36 -0.01,-5.15 -0.74,0.01 -1.49,0.8 -1.71,1.44 -0.19,0.56 -0.35,1.97 -0.42,2.66l-1.62 -0.48c0.29,-2.67 0.95,-3.72 2.24,-4.99 -0.62,-1.69 -0.83,-1.46 -0.43,-3.64l5.89 2.19c-0.63,1.57 -2.1,1.9 -2.61,2.24zm-56.87 -2.34c-0.12,0.5 -2.31,4.52 -2.68,5.03 -1.01,0.02 -1.13,0.11 -1.4,-0.73l-1.55 -4.77c1.56,0.07 1.17,-0.01 1.61,1.32l2.29 0.19 0.63 -1.14 1.11 0.1zm48.49 5.32c-0.15,-1.27 1.07,-6.11 1.29,-7.77l1.45 0.15 -1.52 7.76 -1.22 -0.14zm-21.86 -12.56c1.45,-1.11 3.65,-1.89 5.54,-2.64 3.82,-1.53 3.38,-3.31 4.12,-4.06l0.61 0.65c-0.06,1.14 -0.97,2.38 -1.55,2.87 -1.43,1.22 -3.7,1.81 -5.61,2.71 -0.92,0.44 -2.06,1.26 -2.73,1.5l-0.36 -1.03zm-22.27 -6.12c0.1,-0.16 0.36,-0.49 0.48,-0.63 0.31,0.35 0.4,0.97 0.64,1.39 1.35,2.36 3.71,2.7 6.28,3.84 1.01,0.45 1.82,0.98 2.69,1.39 -0.02,0.51 -0.19,0.71 -0.33,1.15 -0.51,-0.17 -0.99,-0.58 -1.54,-0.87 -3.69,-2.04 -6.96,-2.01 -8.25,-5.51 -0.18,-0.48 -0.2,-0.42 0.04,-0.77zm2.12 -1.73c-0.14,-0.52 -0.13,-0.38 0.13,-0.75 0.16,-0.23 0.28,-0.39 0.51,-0.54 1.16,3.94 2.96,3.93 6.89,6.06 0.45,0.24 0.74,0.47 1.16,0.64 -0.05,0.32 -0.11,0.93 -0.3,1.18l-2.67 -1.58c-2.2,-1.22 -4.86,-1.83 -5.72,-5zm19.45 5.48c0.76,-0.43 1.47,-0.91 2.35,-1.35 1.67,-0.83 3.5,-1.51 4.53,-2.9 0.72,-0.97 0.69,-1.65 1.21,-2.5 1.04,0.92 0.64,1.51 -0.11,2.82 -0.57,1.01 -1.13,1.42 -2.22,2.06 -0.86,0.51 -1.98,0.99 -2.85,1.43l-2.7 1.58 -0.22 -1.14zm-17.33 -8.68c0.35,-0.25 0.49,-0.48 0.87,-0.68 0.3,2.58 0.91,3.26 2.66,4.33 1.02,0.62 3.45,2.04 4.06,3.02l-0.64 0.97c-0.28,-0.2 -0.67,-0.62 -0.98,-0.91 -2.89,-2.66 -6.09,-2.87 -5.98,-6.73zm23.94 -0.01c-0.18,2.52 -1.15,3.54 -2.85,4.48 -1.69,0.92 -3.01,2.05 -4.12,3.17 -0.29,-0.26 -0.56,-0.64 -0.62,-1.15l1.96 -1.53c2.23,-1.62 3.94,-1.9 4.5,-4.19 0.1,-0.41 0.08,-1.12 0.32,-1.39l0.81 0.62zm-15.8 5.24c-0.61,-1.38 -2.63,-3 -3.66,-3.98 -1.12,-1.07 -1.82,-2.38 -1.56,-4.16 0.07,-0.45 0.3,-0.53 0.99,-0.88 0.24,2.61 -0.47,2.56 1.87,4.76 0.59,0.55 1.19,0.99 1.71,1.56 0.48,0.52 0.97,1.17 1.52,1.7 -0.2,0.52 -0.46,0.82 -0.86,1zm6.79 -0.94c2.73,-4.07 5.24,-3.02 5.03,-8.06 0.44,0.14 0.75,0.36 1.01,0.64 0.11,2.87 -0.5,3.59 -2.02,4.79 -0.77,0.61 -1.97,1.82 -2.58,2.6 -0.49,0.63 -0.24,0.66 -0.81,0.95 -0.24,-0.28 -0.5,-0.5 -0.64,-0.91zm-2.99 -13.47c-0.06,2.33 -0.09,3.5 0.36,5.74 0.41,2.06 0.42,3.35 0.3,5.55l-1.17 -0.12c0.22,-2.33 0.35,-3.1 -0.2,-5.36 -0.45,-1.81 -0.53,-3.37 -0.4,-5.37l1.11 -0.44zm-2.29 12.57c-0.4,-0.84 -0.66,-1.86 -1.11,-2.72 -1.18,-2.28 -2.36,-3.05 -1.87,-5.56 0.25,-1.25 0.33,-1.91 1.61,-2.13 -0.63,2.58 -1.13,2.95 0.24,5.33 0.62,1.08 1.96,3.04 2.13,4.4 -0.35,0.25 -0.62,0.56 -1.01,0.67zm3.58 -0.65c0.25,-1.52 1.54,-3.35 2.18,-4.51 1.47,-2.65 0.67,-3.01 0.2,-5.24 1.23,0.22 1.38,0.82 1.64,2.2 0.47,2.49 -0.82,3.37 -1.94,5.62 -0.39,0.78 -0.73,2.01 -1.09,2.62 -0.23,-0.23 -0.69,-0.55 -0.98,-0.7zm-11.03 18.34c0.29,-0.98 0.34,-1.12 0.79,-1.94 0.44,-0.79 0.22,-1.34 0.66,-2.04 1.03,-1.62 1.11,-1.52 1.63,-3.69 0.22,0.39 1.19,2.61 1.11,3.02 -0.16,0.93 -2.69,1.73 -1.11,6.31 0.51,1.49 0.92,1.42 2.08,2.08 -0.47,0.28 -1.19,0.46 -1.72,0.69 -0.77,0.34 -0.74,0.21 -1.49,-0.28 -1.96,-1.3 -1.62,-1.14 -1.96,-2.94l-0.36 0.42c-0.48,-0.54 -6.45,-5.13 -6.87,-5.42l-3.89 -2.31c-1.35,-0.67 -2.96,-1.34 -4.55,-1.76 -8.38,-2.2 -17.28,2.84 -20.74,9.14 -4.33,7.88 -3.86,18.05 -2.47,26.73 0.92,5.76 6.16,16.56 9.31,21.75 0.8,1.3 1.55,2.57 2.44,3.86 0.89,1.27 1.62,2.45 2.55,3.66 0.72,0.94 1.87,2.73 2.59,3.59l11.46 13.44c1.04,1.11 2.01,2.13 3.05,3.14 1.1,1.06 2.02,2.04 3.17,3.14 1.23,1.18 5.15,4.75 6.61,5.9 0.33,0.26 0.47,0.29 0.84,0.62 1.74,1.52 3.53,2.74 5.39,4.08 1.08,0.78 1.56,0.28 1.98,-0.04 1.3,-0.97 3.11,-2.15 4.49,-3.28 0.57,-0.48 1.15,-0.96 1.72,-1.43 0.57,-0.48 1.08,-0.93 1.67,-1.37l6.5 -6.01c0.55,-0.53 1.03,-1.03 1.61,-1.55l10.35 -11.38c2.13,-2.31 8.25,-10.8 9.35,-12.49 0.39,-0.62 0.81,-1.17 1.2,-1.84 3.37,-5.86 4.51,-7.32 7.44,-14.41 0.59,-1.42 1.17,-2.94 1.7,-4.49 0.5,-1.45 1.15,-3.27 1.4,-4.82 1.51,-9.76 2.15,-22.64 -5.01,-30.22 -4.27,-4.53 -11.34,-7.48 -18.02,-5.77 -4.17,1.07 -7.09,3.02 -10.22,5.32 -0.93,0.68 -4.02,3.07 -4.82,3.84 -0.38,0.37 -0.08,0.19 -0.54,0.36l-0.47 -0.76c-0.34,0.24 -0.63,0.84 -1.38,1.52 -0.32,0.29 -1.22,1.08 -1.64,1.19 -1.29,0.36 -2.26,-1.82 -2.28,-3.14 -1.07,0.31 -2.92,1.46 -4.19,1.24 -0.05,-1.33 2.47,-1.69 3.56,-5.88 0.34,-1.31 0.59,-2.76 0.39,-4.16 -0.22,-1.54 -1.09,-2.28 -0.67,-3.79 -0.91,0.19 -2.54,1.06 -1.61,2.02 0.6,0.62 1.19,1.79 1.14,3.04 -0.02,0.79 -1.13,2.34 -1.46,2.83 -1.62,2.43 -0.65,2.11 -0.36,2.69 -0.42,1.02 -3,3.08 -4.39,3.49 -1.16,0.35 -1.68,-0.73 -2.1,-1.6 -0.34,-0.7 -1.01,-2.33 -0.64,-3.17 0.2,-0.19 0.95,0.32 1.2,0.36 0.58,0.09 0.9,-0.13 1.12,-0.54 1.08,-2.07 -1.29,-3.88 -1.57,-4.78 -0.25,-0.82 -0.28,-2.19 0.24,-2.72 0.38,0.43 0.3,0.89 0.83,1.01 0.53,-0.48 0.43,-1.49 0.37,-2.32 -0.13,-1.78 3.01,-4.08 3.69,-4.13 0.03,0.72 -0.52,1.42 -0.82,2.05 -0.97,2.1 -1.07,5.7 0,7.19 0.48,-0.2 1.4,-1.21 1.41,-1.74 -0.59,-0.27 -1.27,-0.22 -1.61,-0.65 -0.24,-0.6 0.86,-3.38 1.08,-4.25 0.96,-3.78 -0.47,-3.24 -0.38,-4.44 1.07,0.06 2.66,1.69 3.2,2.23 1.23,1.23 1.24,2.18 0.8,4.14 1.04,0.39 1.88,1.49 2.48,2.38 1.09,1.61 -0.4,2.56 0.35,4.01 0.84,-0.2 0.47,-0.7 1.09,-1.02 0.43,0.85 0.03,2.28 -0.38,3.02 -0.5,0.9 -1.54,1.23 -1.69,2.07 1.1,0.15 1.98,-0.7 2.77,-1.11 1.3,-0.68 1.84,0.7 1.76,1.95 0.97,-0.81 1.95,-1.83 2.98,-2.6 1.06,-0.8 2.19,-1.72 3.33,-2.42 2.6,-1.58 4.69,-2.89 7.79,-3.71 -0.26,-1.1 -1.4,-3.08 -1.95,-4.08 -1.86,-3.36 -6.65,-8.96 -9.42,-11.53 -0.49,-0.46 -1.01,-1.07 -1.53,-1.52 -2.47,-2.14 -3.94,-3.29 -6.79,-5.14 -0.71,-0.47 -3.15,-2.03 -3.85,-2.23 -0.9,-0.25 -6.46,3.81 -7.3,4.47 -4.02,3.17 -7.14,6.75 -10.19,10.75 -1.72,2.25 -5.2,6.71 -5.68,9.54 2,0.38 5.91,2.63 7.38,3.65 1.15,0.8 2.15,1.63 3.15,2.36 1.08,0.8 1.97,1.84 2.91,2.6z"/>
   <path class="fil2" d="M613.96 27.54c0.19,-0.32 0.63,-1.74 0.92,-2.34 1.49,-3.09 4.27,-6.61 6.4,-9.36 2.03,-2.61 5.3,-6.05 7.76,-8.12 0.32,-0.27 0.51,-0.41 0.86,-0.72 1.29,-1.18 7.69,-5.63 8.74,-5.37 0.54,0.13 3.53,1.97 4.1,2.34 2.52,1.63 4.91,3.54 7.17,5.45 2.71,2.28 7.06,7.14 9.09,9.83 0.84,1.11 1.8,2.46 2.54,3.77 1.46,2.58 1.01,2.23 1.95,4.34 0.88,-0.07 1.87,-0.33 2.9,-0.42 2.45,-0.22 6.3,0.6 8.5,1.43 2.25,0.85 4.72,2.16 6.39,3.74 0.63,0.6 1,1 1.63,1.64 0.39,0.38 1.05,1.32 1.47,1.92 1.34,1.91 2.56,4.48 3.27,6.75 4.04,12.89 0.14,26.12 -4.61,37.44 -0.41,0.97 -0.78,1.99 -1.19,2.88 -2.32,4.98 -9.06,14.1 -12.94,18.82l-5.47 6.36c-1.32,1.42 -2.61,2.75 -3.87,4.13 -2.38,2.63 -10.15,10.04 -12.11,11.66 -0.74,0.62 -1.43,1.33 -2.17,1.88 -0.74,0.55 -1.46,1.17 -2.19,1.76 -0.43,0.36 -4.18,3.17 -4.66,3.2 -0.69,0.06 -5.68,-3.92 -6.91,-4.98 -0.73,-0.63 -1.36,-1.17 -2.09,-1.85 -0.72,-0.66 -1.45,-1.23 -2.17,-1.88l-6.06 -5.76c-2.63,-2.57 -5.24,-5.3 -7.77,-8.12l-1.88 -2.17c-0.63,-0.68 -1.29,-1.38 -1.85,-2.09 -1.36,-1.7 -4.15,-4.89 -5.33,-6.61l-3.33 -4.55c-1.27,-1.68 -5.27,-7.94 -6.08,-9.8 -3.54,-8.13 -7.47,-18.38 -7.46,-28.3 0,-4.15 0.55,-8.75 1.75,-12.28 1.34,-3.95 2.51,-5.7 4.94,-8.69 1.91,-2.36 5.31,-4.25 8.31,-5.3 3.67,-1.29 7.61,-1.67 11.46,-0.62zm116.03 26.08c3.22,-1.32 5.72,-3.61 7.37,-5.91l-46.13 -0.01 -0.19 -1.25 48.55 0.22c-0.48,1.76 -2.6,4.22 -3.53,5.15 -1.2,1.18 -3.26,2.6 -5.24,3.44 -4.27,1.8 -8.79,1.41 -13.55,1.52 -1.97,0.05 -2.33,-0.37 -2.02,1.59 0.13,0.86 -0.15,-0.66 0.04,0.21l0.07 0.25c4.66,0.12 9.08,-0.18 13.3,-0.02 -0.55,1.37 -3.28,4.34 -4.25,5.24 -1.55,1.45 -3.41,2.91 -5.6,4.09 -2.28,1.23 -4.62,1.82 -7.73,1.94 -3.14,0.11 -6.26,0.18 -9.41,0.21 0.24,0.65 -0.12,1.11 0.02,1.88 0.83,0.39 4.21,0.18 5.46,0.22l7.7 0.1c-0.63,0.75 -1.17,1.64 -1.79,2.3 -3.48,3.69 -7.34,6.59 -12.61,7.77 -2.82,0.64 -6.81,0.42 -10.02,0.42l0.03 1.32 12 0.47c-0.26,1.33 -2.83,4.29 -3.58,5 -3.09,2.94 -6.98,5.25 -11.4,5.86 -1.21,0.17 -7.53,0.22 -8,0.51l-0.23 0.45c-0.06,0.14 -0.11,0.32 -0.2,0.49 -0.22,0.45 -0.41,0.42 -0.48,0.63l11.15 -0.1c-0.2,0.58 -0.48,0.8 -0.92,1.35 -2.4,2.95 -4.6,4.87 -8.09,6.78 -3.16,1.73 -10.23,3.49 -13.66,3.23 0.24,-0.4 0.63,-0.59 0.95,-0.96 0.47,-0.56 0.28,-0.48 1.22,-0.56 3.07,-0.29 6.14,-0.85 8.9,-1.92 1.77,-0.68 3.46,-1.56 4.75,-2.59 0.92,-0.73 3.14,-2.65 3.57,-3.7l-11.64 0.08c0.19,-0.52 0.61,-0.96 0.94,-1.38 0.37,-0.45 0.62,-0.85 0.95,-1.3 0.66,-0.87 1.3,-1.7 1.93,-2.53 2.31,-0.04 4.5,-0.3 6.76,-0.4 3.28,-0.16 2.8,0.06 5.77,-1.17 1.52,-0.63 3.31,-1.69 4.43,-2.56 0.73,-0.57 3.03,-2.79 3.06,-3.82l-15.4 -0.22c0.08,-0.37 0.99,-1.65 1.27,-2.3 0.24,-0.57 0.75,-2.29 0.99,-2.65 1.49,-0.07 3.77,0.21 5.28,0.35 1.7,0.15 3.63,0.27 5.41,0.27 6.2,0 11.46,-2.98 15.3,-7.37 0.21,-0.24 0.18,-0.09 0.19,-0.37l-23.59 -0.09c0.13,-0.41 0.36,-0.79 0.53,-1.25 0.65,-1.71 0.68,-3.03 1.11,-4.3l12.43 -0.11c5.2,-0.03 10.29,0.47 14.84,-1.44 1.56,-0.65 3.16,-1.52 4.31,-2.43 0.96,-0.77 2.86,-2.43 3.38,-3.42l-33.52 -0.39c0.21,-1.28 0.42,-4.67 0.44,-4.73l0.07 -0.18c0.66,-0.17 25.15,-0.23 26.58,-0.25 4.57,-0.06 7.84,-0.08 11.69,-1.65zm-144.21 -7.16l-0.21 1.25 -46.12 0.03c1.64,2.26 4.16,4.57 7.37,5.88 3.84,1.57 7.12,1.59 11.69,1.65 1.5,0.02 25.91,0.07 26.58,0.25l0.13 0.59c0.12,2 -0.03,1.83 0.38,4.33l-33.52 0.4c0.42,0.79 1.9,2.11 2.57,2.74 2.42,2.29 7.72,4.49 11.29,4.5l15.88 0.09c1.5,0.01 3.84,-0.12 5.23,0.06 0.3,0.89 0.42,2.03 0.67,2.93 0.42,1.55 0.73,1.86 0.97,2.61l-23.59 0.09c0.01,0.27 0.13,0.3 0.41,0.59 0.21,0.22 0.33,0.37 0.54,0.6 1.8,1.92 3.84,3.38 6.2,4.61 0.92,0.48 2.01,0.88 3.08,1.21 5.68,1.7 11.35,-0.09 15.95,0.11 0.24,0.36 0.75,2.07 0.99,2.65 0.28,0.66 1.19,1.93 1.27,2.29l-15.41 0.21c0.03,1.08 2.36,3.31 3.13,3.89 1.14,0.87 2.91,1.93 4.44,2.55 0.63,0.26 1.88,0.81 2.56,0.94l9.9 0.61c0.44,0.59 3.61,4.63 3.82,5.22l-11.64 -0.09c0.42,1.03 2.71,3.03 3.63,3.75 3.64,2.85 9,4.03 13.69,4.46 0.92,0.09 0.71,0.08 1.18,0.62 0.31,0.35 0.67,0.52 0.89,0.9 -1.82,0.14 -5.84,-0.59 -7.53,-1 -5.96,-1.43 -10.59,-4.38 -14.27,-9.07 -0.42,-0.54 -0.67,-0.68 -0.87,-1.29 1.46,-0.01 10.43,-0.04 11.15,0.14 -0.1,-0.39 -0.13,0.09 -0.51,-0.75 -0.09,-0.2 -0.12,-0.31 -0.19,-0.48 -0.18,-0.41 0.01,-0.14 -0.2,-0.37 -0.47,-0.29 -6.89,-0.35 -8.09,-0.52 -2.49,-0.36 -4.49,-1.2 -6.39,-2.2 -0.92,-0.49 -1.89,-1.18 -2.68,-1.71 -1.77,-1.21 -5.46,-5.1 -5.82,-6.94l12 -0.49 0.03 -1.29c-2.81,-0.09 -5.93,0.26 -8.62,-0.15 -4.58,-0.7 -8.51,-2.89 -11.77,-5.78 -2.29,-2.02 -2.41,-2.62 -4.03,-4.55 1.38,-0.2 12.09,0.19 13.16,-0.33 0.15,-0.73 -0.21,-1.24 0.03,-1.87 -3.18,-0.04 -6.36,-0.08 -9.52,-0.22 -5.69,-0.25 -9.26,-2.4 -13.15,-5.98 -0.89,-0.82 -3.79,-3.95 -4.28,-5.27 1.87,-0.23 4.75,0.02 6.74,0.03 1.2,0 5.75,0.2 6.53,-0.08 0.09,-0.18 0.02,0 0.09,-0.31 0.44,-2.12 -0.19,-1.66 -2.12,-1.7l-6.31 -0.1c-4.91,-0.24 -9.02,-1.53 -12.42,-4.91 -0.93,-0.93 -3.01,-3.35 -3.47,-5.07l48.56 -0.23zm26.64 -21.81c-7.38,0 -12.99,0.82 -18.48,5.62 -1.85,1.62 -3.38,3.7 -4.76,6.28 -0.95,1.78 -1.76,3.91 -2.32,5.89l-0.42 1.6c-0.28,1.05 -1.14,0.63 -3.15,0.63 -16.27,0.02 -32.55,0.27 -48.83,0.33 0.03,0.82 1.48,3.57 1.89,4.23 0.82,1.35 1.68,2.46 2.75,3.57 1.46,1.5 5.47,4.42 7.65,4.83l-1.29 0.4c0.31,0.65 1,1.46 1.41,2.09 0.48,0.75 0.99,1.34 1.55,2.06 1.08,1.4 2.13,2.64 3.41,3.79 1.88,1.68 4.08,3.28 6.47,4.23 0.43,0.17 0.8,0.32 1.3,0.5 0.43,0.16 1.03,0.24 1.37,0.56l-1.82 0c0.2,0.91 3.48,4.54 4.41,5.5 2.32,2.38 4.69,4.25 7.82,5.7 0.59,0.27 1.91,0.66 2.32,1.05l-1.73 0.13c0.02,1.15 4.41,6.78 5.44,7.76 0.53,0.51 1.2,0.98 1.81,1.46 0.71,0.56 1.22,0.91 2.02,1.35 1.72,0.95 4.26,1.85 4.54,2.01l0.16 0.11c-0.35,0.3 -0.48,0.23 -0.82,0.35 -0.03,0.01 -0.06,0.02 -0.08,0.03l-0.15 0.07c2.16,3.12 4.16,5.87 7.16,8.26 0.44,0.35 1.02,0.83 1.5,1.1 0.55,0.32 0.97,0.65 1.59,1 4.32,2.44 10.76,3.72 16.71,3.92 1.64,2.67 6.63,7.75 9.06,9.96 0.55,0.5 1.05,1.02 1.61,1.55l5.13 4.44c1.24,1 2.33,1.9 3.56,2.86 0.81,0.64 6.83,5.56 7.17,5.58 0.3,0.02 1.59,-1.09 1.88,-1.29 0.59,-0.43 1.21,-0.93 1.76,-1.4 2.35,-1.95 4.73,-3.63 7.07,-5.65 0.56,-0.48 1.15,-1.02 1.73,-1.42 0.57,-0.39 1.15,-1.01 1.75,-1.52 1.15,-0.96 2.21,-2.02 3.28,-3.01 2.5,-2.32 4.85,-4.67 7.03,-7.29 0.26,-0.32 0.39,-0.56 0.68,-0.9 2.45,-2.91 0.25,-1.56 6.03,-2.29 1.52,-0.19 2.97,-0.43 4.45,-0.74 5.25,-1.09 9.94,-3.69 13.44,-7.28l4.51 -5.83 -0.52 -0.22c-0.39,-0.13 -0.27,-0.04 -0.55,-0.27 0.49,-0.39 1.79,-0.72 2.34,-0.96 0.77,-0.34 1.62,-0.71 2.27,-1.12 0.75,-0.48 1.25,-0.75 1.97,-1.29 2.68,-2 4.34,-4.24 6.19,-7.1 0.23,-0.36 1.08,-1.74 1.2,-2.15 -0.49,-0.21 -1.15,-0.14 -1.73,-0.16 0.16,-0.17 0.02,-0.06 0.23,-0.2 1.22,-0.81 3.56,-0.96 8.18,-4.92 1.25,-1.08 2.23,-2.04 3.28,-3.36 0.39,-0.5 2.79,-3.41 2.85,-3.79l-1.89 -0.03c0.1,-0.1 0.07,-0.08 0.24,-0.17 1.27,-0.62 2.44,-0.61 4.74,-2.02 1.97,-1.21 2.47,-1.75 4.15,-3.05 1.35,-1.04 4.01,-4.19 4.99,-5.82 0.41,-0.69 1.14,-1.5 1.44,-2.17 -0.3,-0.23 -0.92,-0.27 -1.25,-0.43 4.37,-1.3 8.08,-4.76 10.32,-8.3 0.4,-0.63 1.9,-3.5 1.93,-4.29l-51.81 -0.35c-1.54,-6.28 -3.96,-11.05 -7.67,-14.38 -0.46,-0.41 -0.97,-0.79 -1.48,-1.23 -3.76,-3.25 -10.28,-4.39 -15.23,-4.38l-1.77 0.01c-1.19,-2.99 -2.78,-5.49 -4.74,-7.9 -1.51,-1.86 -5.03,-5.78 -6.95,-7.35l-2.53 -2.21c-1.89,-1.68 -5.22,-3.83 -7.44,-5.17 -0.57,-0.35 -3.82,-2.03 -4.28,-2.06 -1.16,-0.07 -6.92,3.67 -8.08,4.41 -3.58,2.31 -8.79,7.23 -11.67,10.52 -1.53,1.74 -2.79,3.51 -4.12,5.45 -0.98,1.43 -1.44,2.59 -2.15,4.26z"/>
   <path class="fil3" d="M537.21 46.69c0.47,1.72 2.54,4.14 3.47,5.07 3.4,3.38 7.51,4.67 12.42,4.91l6.31 0.1c1.93,0.05 2.56,-0.42 2.12,1.7 -0.07,0.31 0,0.12 -0.09,0.31 -0.78,0.28 -5.33,0.09 -6.53,0.08 -1.99,-0.01 -4.87,-0.26 -6.74,-0.03 0.49,1.32 3.38,4.46 4.28,5.27 3.89,3.58 7.47,5.72 13.15,5.98 3.16,0.14 6.34,0.18 9.52,0.22 -0.24,0.64 0.12,1.14 -0.03,1.87 -1.07,0.51 -11.78,0.12 -13.16,0.33 1.62,1.93 1.74,2.53 4.03,4.55 3.26,2.89 7.19,5.08 11.77,5.78 2.69,0.41 5.81,0.06 8.62,0.15l-0.03 1.29 -12 0.49c0.36,1.85 4.05,5.73 5.82,6.94 0.79,0.53 1.75,1.23 2.68,1.71 1.9,1 3.9,1.84 6.39,2.2 1.2,0.18 7.63,0.23 8.09,0.52 0.21,0.23 0.03,-0.04 0.2,0.37 0.07,0.17 0.1,0.28 0.19,0.48 0.38,0.84 0.41,0.36 0.51,0.75 -0.72,-0.18 -9.68,-0.15 -11.15,-0.14 0.2,0.61 0.44,0.75 0.87,1.29 3.68,4.69 8.31,7.64 14.27,9.07 1.69,0.41 5.71,1.14 7.53,1 -0.23,-0.38 -0.59,-0.55 -0.89,-0.9 -0.46,-0.53 -0.26,-0.53 -1.18,-0.62 -4.69,-0.43 -10.05,-1.61 -13.69,-4.46 -0.92,-0.72 -3.21,-2.72 -3.63,-3.75l11.64 0.09c-0.22,-0.59 -3.38,-4.63 -3.82,-5.22l-9.9 -0.61c-0.68,-0.12 -1.93,-0.68 -2.56,-0.94 -1.54,-0.62 -3.31,-1.68 -4.44,-2.55 -0.76,-0.58 -3.1,-2.81 -3.13,-3.89l15.41 -0.21c-0.08,-0.36 -0.99,-1.64 -1.27,-2.29 -0.24,-0.57 -0.76,-2.29 -0.99,-2.65 -4.59,-0.21 -10.27,1.58 -15.95,-0.11 -1.07,-0.32 -2.16,-0.73 -3.08,-1.21 -2.36,-1.23 -4.4,-2.69 -6.2,-4.61 -0.21,-0.22 -0.33,-0.38 -0.54,-0.6 -0.28,-0.29 -0.4,-0.32 -0.41,-0.59l23.59 -0.09c-0.23,-0.75 -0.55,-1.06 -0.97,-2.61 -0.25,-0.91 -0.37,-2.04 -0.67,-2.93 -1.39,-0.18 -3.72,-0.04 -5.23,-0.06l-15.88 -0.09c-3.57,-0.01 -8.86,-2.21 -11.29,-4.5 -0.67,-0.63 -2.14,-1.95 -2.57,-2.74l33.52 -0.4c-0.41,-2.5 -0.26,-2.33 -0.38,-4.33l-0.13 -0.59c-0.67,-0.18 -25.07,-0.23 -26.58,-0.25 -4.57,-0.06 -7.85,-0.08 -11.69,-1.65 -3.21,-1.31 -5.74,-3.62 -7.37,-5.88l46.12 -0.03 0.21 -1.25 -48.56 0.23z"/>
   <path class="fil3" d="M691.23 47.71l46.13 0.01c-1.65,2.3 -4.15,4.59 -7.37,5.91 -3.85,1.57 -7.12,1.59 -11.69,1.65 -1.43,0.02 -25.92,0.08 -26.58,0.25l-0.07 0.18c-0.02,0.07 -0.23,3.45 -0.44,4.73l33.52 0.39c-0.52,0.99 -2.42,2.65 -3.38,3.42 -1.15,0.91 -2.75,1.78 -4.31,2.43 -4.55,1.91 -9.64,1.41 -14.84,1.44l-12.43 0.11c-0.43,1.27 -0.46,2.59 -1.11,4.3 -0.17,0.46 -0.4,0.84 -0.53,1.25l23.59 0.09c-0.01,0.27 0.02,0.12 -0.19,0.37 -3.85,4.38 -9.1,7.37 -15.3,7.37 -1.79,0 -3.71,-0.12 -5.41,-0.27 -1.52,-0.14 -3.79,-0.42 -5.28,-0.35 -0.24,0.36 -0.75,2.07 -0.99,2.65 -0.28,0.65 -1.19,1.94 -1.27,2.3l15.4 0.22c-0.03,1.03 -2.33,3.26 -3.06,3.82 -1.12,0.87 -2.91,1.94 -4.43,2.56 -2.97,1.23 -2.49,1.02 -5.77,1.17 -2.27,0.11 -4.45,0.37 -6.76,0.4 -0.63,0.83 -1.27,1.66 -1.93,2.53 -0.34,0.44 -0.58,0.85 -0.95,1.3 -0.34,0.41 -0.75,0.85 -0.94,1.38l11.64 -0.08c-0.43,1.04 -2.65,2.96 -3.57,3.7 -1.29,1.02 -2.98,1.9 -4.75,2.59 -2.77,1.07 -5.84,1.64 -8.9,1.92 -0.93,0.08 -0.74,0 -1.22,0.56 -0.32,0.37 -0.71,0.56 -0.95,0.96 3.43,0.26 10.5,-1.5 13.66,-3.23 3.49,-1.91 5.69,-3.83 8.09,-6.78 0.45,-0.55 0.72,-0.77 0.92,-1.35l-11.15 0.1c0.06,-0.2 0.26,-0.18 0.48,-0.63 0.08,-0.17 0.14,-0.35 0.2,-0.49l0.23 -0.45c0.47,-0.29 6.79,-0.34 8,-0.51 4.42,-0.61 8.31,-2.91 11.4,-5.86 0.75,-0.71 3.31,-3.67 3.58,-5l-12 -0.47 -0.03 -1.32c3.21,0.01 7.2,0.22 10.02,-0.42 5.27,-1.19 9.13,-4.08 12.61,-7.77 0.62,-0.65 1.16,-1.55 1.79,-2.3l-7.7 -0.1c-1.26,-0.04 -4.63,0.17 -5.46,-0.22 -0.15,-0.77 0.22,-1.23 -0.02,-1.88 3.15,-0.04 6.27,-0.1 9.41,-0.21 3.1,-0.12 5.45,-0.71 7.73,-1.94 2.19,-1.18 4.05,-2.64 5.6,-4.09 0.97,-0.91 3.69,-3.88 4.25,-5.24 -4.22,-0.16 -8.63,0.14 -13.3,0.02l-0.07 -0.25c-0.19,-0.87 0.09,0.65 -0.04,-0.21 -0.31,-1.96 0.05,-1.55 2.02,-1.59 4.76,-0.11 9.27,0.28 13.55,-1.52 1.98,-0.83 4.04,-2.26 5.24,-3.44 0.94,-0.93 3.06,-3.38 3.53,-5.15l-48.55 -0.22 0.19 1.25z"/>
   <path class="fil3" d="M648.03 36.48l-0.31 1.01 0.47 0.76c0.46,-0.17 0.16,0.01 0.54,-0.36 0.79,-0.77 3.89,-3.16 4.82,-3.84 3.13,-2.3 6.06,-4.25 10.22,-5.32 6.68,-1.71 13.74,1.24 18.02,5.77 7.16,7.57 6.51,20.45 5.01,30.22 -0.24,1.55 -0.9,3.36 -1.4,4.82 -0.53,1.55 -1.11,3.07 -1.7,4.49 -2.93,7.08 -4.07,8.55 -7.44,14.41 -0.38,0.67 -0.8,1.23 -1.2,1.84 -1.1,1.69 -7.23,10.19 -9.35,12.49l-10.35 11.38c-0.58,0.51 -1.05,1.01 -1.61,1.55l-6.5 6.01c-0.58,0.43 -1.1,0.89 -1.67,1.37 -0.57,0.47 -1.14,0.95 -1.72,1.43 -1.38,1.13 -3.19,2.31 -4.49,3.28 -0.42,0.31 -0.9,0.81 -1.98,0.04 -1.86,-1.33 -3.65,-2.56 -5.39,-4.08 -0.37,-0.33 -0.51,-0.36 -0.84,-0.62 -1.45,-1.15 -5.38,-4.72 -6.61,-5.9 -1.15,-1.1 -2.07,-2.08 -3.17,-3.14 -1.04,-1.01 -2.01,-2.03 -3.05,-3.14l-11.46 -13.44c-0.72,-0.86 -1.87,-2.65 -2.59,-3.59 -0.93,-1.21 -1.66,-2.38 -2.55,-3.66 -0.9,-1.29 -1.64,-2.56 -2.44,-3.86 -3.16,-5.2 -8.39,-15.99 -9.31,-21.75 -1.39,-8.68 -1.86,-18.85 2.47,-26.73 3.46,-6.31 12.36,-11.35 20.74,-9.14 1.58,0.42 3.2,1.1 4.55,1.76l3.89 2.31c0.42,0.28 6.39,4.88 6.87,5.42l0.36 -0.42 0.01 -1.22c-0.94,-0.76 -1.83,-1.8 -2.91,-2.6 -1,-0.74 -2,-1.56 -3.15,-2.36 -1.46,-1.01 -5.38,-3.27 -7.38,-3.65 0.49,-2.84 3.96,-7.3 5.68,-9.54 3.06,-4 6.17,-7.58 10.19,-10.75 0.84,-0.66 6.4,-4.72 7.3,-4.47 0.7,0.2 3.14,1.76 3.85,2.23 2.85,1.86 4.32,3 6.79,5.14 0.51,0.44 1.04,1.06 1.53,1.52 2.76,2.57 7.55,8.17 9.42,11.53 0.55,0.99 1.69,2.97 1.95,4.08 -3.1,0.82 -5.19,2.13 -7.79,3.71 -1.14,0.69 -2.27,1.62 -3.33,2.42 -1.03,0.78 -2.01,1.8 -2.98,2.6zm-34.08 -8.94c-3.85,-1.05 -7.79,-0.67 -11.46,0.62 -3,1.06 -6.4,2.94 -8.31,5.3 -2.43,2.99 -3.59,4.74 -4.94,8.69 -1.21,3.53 -1.75,8.13 -1.75,12.28 -0,9.92 3.92,20.17 7.46,28.3 0.81,1.86 4.81,8.12 6.08,9.8l3.33 4.55c1.18,1.71 3.97,4.91 5.33,6.61 0.56,0.71 1.23,1.41 1.85,2.09l1.88 2.17c2.54,2.82 5.14,5.55 7.77,8.12l6.06 5.76c0.72,0.65 1.45,1.22 2.17,1.88 0.73,0.68 1.36,1.22 2.09,1.85 1.23,1.06 6.21,5.03 6.91,4.98 0.48,-0.04 4.22,-2.85 4.66,-3.2 0.72,-0.59 1.45,-1.21 2.19,-1.76 0.74,-0.55 1.43,-1.26 2.17,-1.88 1.96,-1.61 9.72,-9.03 12.11,-11.66 1.26,-1.38 2.55,-2.71 3.87,-4.13l5.47 -6.36c3.88,-4.72 10.62,-13.85 12.94,-18.82 0.41,-0.89 0.78,-1.9 1.19,-2.88 4.75,-11.32 8.65,-24.55 4.61,-37.44 -0.71,-2.28 -1.93,-4.84 -3.27,-6.75 -0.42,-0.6 -1.08,-1.53 -1.47,-1.92 -0.63,-0.63 -1,-1.04 -1.63,-1.64 -1.67,-1.58 -4.15,-2.89 -6.39,-3.74 -2.19,-0.83 -6.04,-1.65 -8.5,-1.43 -1.02,0.09 -2.01,0.35 -2.9,0.42 -0.94,-2.11 -0.49,-1.76 -1.95,-4.34 -0.74,-1.31 -1.7,-2.66 -2.54,-3.77 -2.03,-2.69 -6.38,-7.54 -9.09,-9.83 -2.26,-1.91 -4.64,-3.82 -7.17,-5.45 -0.57,-0.37 -3.56,-2.2 -4.1,-2.34 -1.06,-0.26 -7.45,4.2 -8.74,5.37 -0.35,0.32 -0.54,0.45 -0.86,0.72 -2.45,2.07 -5.73,5.51 -7.76,8.12 -2.13,2.76 -4.91,6.27 -6.4,9.36 -0.29,0.6 -0.72,2.02 -0.92,2.34z"/>
   <path class="fil3" d="M656.52 82.6c0,0.2 0.04,0.13 -0.18,0.09l-0.17 0.17 -0.19 0.04 -0.18 0.16 -0.19 0.15 -0.31 0.07 -0 -6.14 -1.12 -0 0 6.24c0,0.72 -0.05,0.52 -0.18,0.65 -0.5,0.41 -2.74,1.43 -3.5,1.66l-0.04 -8.17 -1.22 0.03 -0.01 8.65c-0.76,0.26 -3.02,1.02 -3.78,0.97l-0.04 -9.65 -1.22 0.03 -0.05 9.88c-0.65,0.26 -3.34,0.47 -4.18,0.44l-0.01 -10.48 -1.09 -0.05c-0.27,0.53 -0.11,10.01 -0.11,10.49 -1.38,-0.02 -2.8,-0.16 -4.07,-0.38l-0.03 -9.93 -1.23 -0.01 0 9.68c-0.81,-0.02 -3.04,-0.71 -3.79,-1.01l-0.04 -8.66 -1.21 0.01 -0 8.14c-1.2,-0.26 -2.53,-1.23 -3.62,-1.63l-0.03 -6.94 -1.22 0.01 -0.02 6.11c-0.68,-0.21 -2.46,-1.56 -3.09,-1.98l-0.04 -4.13 -1.21 -0 -0.01 3.14c-0.5,-0.21 -1.46,-1.18 -1.93,-1.57 -1,-0.84 -1.57,-1.59 -2.16,-1.21 -0.93,0.82 0.52,2.75 0.97,3.53 1.23,2.14 2.6,4 4.33,5.81 1.17,1.23 2.66,2.47 4.09,3.46 3.87,2.66 8.01,4.15 12.85,4.62 0.09,0.82 -0.14,1.06 0.29,1.61 0.24,0.32 0.54,0.72 0.84,0.97 0.36,-0.25 0.54,-0.64 0.89,-1.01 0.35,-0.37 0.42,-0.86 0.47,-1.38 0.02,-0.17 3.81,-0.48 4.71,-0.66 1.4,-0.29 2.87,-0.71 4.1,-1.19 2.63,-1 4.87,-2.3 6.83,-3.77 2.73,-2.04 3.2,-2.77 5.34,-5.25 0.57,-0.66 4.37,-6 3.06,-6.76 -0.93,-0.53 -2.63,2.11 -4.1,2.77l-0.04 -3.12 -1.21 0 -0.01 4.17c-0.61,0.37 -1.32,0.99 -1.97,1.32z"/>
   <path class="fil3" d="M654.61 49.49c0.19,-0.35 0.6,-0.56 1.02,-0.86l3.12 -1.95c1.67,-0.8 2.96,-1.46 4.99,-1.86 9.57,-1.88 12.07,9.12 10.49,15.88 -0.44,1.87 -1.05,3.53 -1.63,5.25 -2.41,7.05 -8.06,16.85 -11.88,22.48 -3.57,5.25 -4.89,6.91 -8.86,11.75 -0.52,0.64 -1.13,1.23 -1.65,1.83 -0.3,0.34 -0.54,0.46 -0.6,1.08 -0.05,0.56 -0.08,1.21 -0.07,1.76 0.57,-0.18 0.78,-0.55 1.1,-0.94 1.33,-1.58 2.91,-3.15 4.34,-4.9 0.31,-0.38 0.45,-0.65 0.82,-1.09 0.28,-0.32 0.57,-0.63 0.82,-0.98 0.52,-0.72 1.12,-1.39 1.64,-2.08 0.52,-0.68 0.96,-1.39 1.56,-2.16 1.83,-2.33 7.14,-10.58 8.61,-13.58 1.64,-3.33 3.41,-6.24 4.71,-10.05 2.43,-7.12 5.36,-18.07 -0.47,-23.32 -4.55,-4.09 -11.67,-2.71 -16.78,0.43 -0.73,0.45 -3.15,2.11 -3.69,2.73 -0.13,0.15 -0.12,0.18 -0.13,0.2l-0.08 0.26 -12.4 0.04c0.06,0.28 0.48,0.68 0.72,0.88 0.37,0.28 0.92,0.18 1.5,0.18l16.89 0.03c2.36,0 3.89,-0.24 5.62,1 1.12,0.81 2.26,2.4 2.14,4.61 -0.12,2.04 -1.35,3.34 -2.73,4.02 -2.3,1.14 -9.64,0.42 -12.83,0.54 0.2,0.42 0.32,0.46 0.71,0.84 0.25,0.24 0.46,0.41 0.62,0.68 -0.37,0.32 -0.85,0.72 -1.01,1.16l13.62 0.14c0.02,0.77 -1.08,3.06 -1,5.35 0.03,0.97 0.23,1.85 0.48,2.69 0.26,0.87 0.65,1.63 0.82,2.44 -4.44,0.12 -9.08,-0.01 -13.54,-0.02l-10.14 -0.02c-0.79,-0.01 -0.88,-0.1 -1.32,0.34 -0.2,0.2 -0.64,0.61 -0.75,0.81l28.52 0.03 0.06 -1.38c-1.54,-0.17 -1.41,-0.22 -1.9,-1.56 -0.98,-2.66 -0.52,-6.5 0.66,-8.57l1.18 -0.08 -0.03 -1.41 -3.81 -0.05c0.34,-0.3 0.87,-0.41 1.28,-0.65 3.15,-1.92 3.16,-6.74 1.58,-9.37 -0.95,-1.6 -2.26,-2.55 -4.85,-2.55 -2.5,0 -5,0 -7.49,-0.02z"/>
   <path class="fil3" d="M629.88 104.88c0.06,-0.42 -0.01,-1.32 -0.05,-1.79 -0.04,-0.54 -0.32,-0.68 -0.61,-1.02 -0.91,-1.06 -2.5,-2.72 -3.23,-3.74 -1.19,-1.65 -2.94,-3.58 -4.48,-5.78l-2.8 -4.06c-0.53,-0.77 -0.91,-1.36 -1.38,-2.12l-1.3 -2.07c-3.31,-5.15 -7.11,-12.61 -9.2,-18.29 -0.61,-1.64 -1.23,-3.48 -1.61,-5.25 -1.16,-5.19 0.11,-12.64 4.75,-15.02 3.57,-1.83 7.39,-0.8 10.8,0.91 0.89,0.44 3.86,2.14 4.19,2.71 -3.47,0.2 -10.22,0 -14.32,0.01 -0.52,0 -0.54,-0.09 -0.62,0.32 -0.03,0.14 -0.02,0.79 -0.02,0.97 1.37,0.4 1.28,-0.08 1.9,1.49 1.26,3.19 -0.16,7.82 -0.69,8.08l-1.07 0.08 -0.1 0.63c-0.01,0.22 0.01,0.49 0.02,0.71 0.8,0.04 3.3,-0.08 3.78,0.13 -5.92,1.86 -4.66,13.15 1.3,13.22 3.71,0.04 7.44,0.01 11.15,0.02 3.69,0.02 7.5,0.12 11.17,0.03 -0.14,-0.35 -0.5,-0.71 -0.79,-0.94 -0.36,-0.3 -0.76,-0.2 -1.37,-0.19l-16.21 -0.03c-2.31,-0.01 -3.77,0.22 -5.38,-1.03 -2.73,-2.12 -3.02,-6.51 -0.14,-8.75 1.49,-1.15 3.25,-1.06 5.4,-1.03 2.15,0.03 4.32,0.05 6.48,0.05 -0.17,-0.4 -0.4,-0.59 -0.8,-0.94 0.2,-0.32 0.51,-0.56 0.8,-0.85 0.27,-0.27 0.67,-0.51 0.72,-0.89l-13.8 -0.11c-0.04,-0.53 1.24,-3.49 1.32,-5.01 0.16,-2.7 -1.22,-3.94 -1.56,-4.9 2.89,-0.15 9.81,0 13.15,0.01l9.8 0.02c0.81,0 1.61,0.21 2.25,-1.02 -2.54,-0.15 -5.52,-0.03 -8.1,-0.04 -0.62,0 -1.42,0.11 -1.77,-0.19 -1.27,-1.07 -1.85,-1.57 -3.41,-2.57 -4.95,-3.18 -12.97,-5.59 -17.8,-0.48 -1.3,1.37 -2.17,3.01 -2.6,5.41 -1.93,10.63 6.16,26.42 12.1,35.36l3.3 4.81c1.44,2.11 4.32,5.79 6.14,7.94 0.32,0.38 0.64,0.66 0.91,1 0.63,0.8 1.08,1.4 1.89,2.17 0.59,0.56 1.43,1.67 1.92,1.99z"/>
   <path class="fil4" d="M647.73 37.5l0.31 -1.01c0.08,-1.25 -0.46,-2.63 -1.76,-1.95 -0.79,0.41 -1.67,1.26 -2.77,1.11 0.14,-0.85 1.19,-1.18 1.69,-2.07 0.41,-0.74 0.82,-2.17 0.38,-3.02 -0.62,0.32 -0.25,0.82 -1.09,1.02 -0.75,-1.45 0.75,-2.4 -0.35,-4.01 -0.6,-0.89 -1.44,-1.99 -2.48,-2.38 0.44,-1.96 0.42,-2.91 -0.8,-4.14 -0.54,-0.54 -2.13,-2.17 -3.2,-2.23 -0.09,1.21 1.34,0.66 0.38,4.44 -0.22,0.87 -1.32,3.66 -1.08,4.25 0.35,0.43 1.03,0.38 1.61,0.65 -0.01,0.53 -0.93,1.54 -1.41,1.74 -1.07,-1.49 -0.97,-5.09 0,-7.19 0.3,-0.63 0.85,-1.32 0.82,-2.05 -0.68,0.05 -3.83,2.35 -3.69,4.13 0.06,0.84 0.17,1.84 -0.37,2.32 -0.53,-0.13 -0.44,-0.58 -0.83,-1.01 -0.52,0.53 -0.49,1.89 -0.24,2.72 0.28,0.9 2.64,2.71 1.57,4.78 -0.22,0.41 -0.53,0.64 -1.12,0.54 -0.24,-0.04 -1,-0.55 -1.2,-0.36 -0.37,0.83 0.3,2.46 0.64,3.17 0.42,0.88 0.94,1.95 2.1,1.6 1.39,-0.41 3.97,-2.47 4.39,-3.49 -0.29,-0.59 -1.25,-0.26 0.36,-2.69 0.33,-0.49 1.43,-2.04 1.46,-2.83 0.04,-1.25 -0.55,-2.42 -1.14,-3.04 -0.93,-0.96 0.7,-1.83 1.61,-2.02 -0.42,1.52 0.45,2.25 0.67,3.79 0.2,1.4 -0.05,2.85 -0.39,4.16 -1.09,4.19 -3.61,4.55 -3.56,5.88 1.26,0.23 3.12,-0.93 4.19,-1.24 0.02,1.31 0.99,3.5 2.28,3.14 0.41,-0.11 1.31,-0.9 1.64,-1.19 0.75,-0.67 1.04,-1.27 1.38,-1.52z"/>
   <path class="fil3" d="M634.45 100.73c1.6,3.63 4.83,0.46 6.62,0.67 0.5,0.87 0.56,1.48 0.3,2.69 -1.14,-1.89 -0.54,-0.55 -4.64,-0.45 0.02,0.02 0.05,0.05 0.06,0.07l0.19 0.19c0.11,0.09 0.17,0.12 0.28,0.18 0.23,0.13 0.34,0.18 0.57,0.32 0.56,0.34 1.84,1.29 2.38,1.15 0.38,-0.09 0.84,-0.55 1.03,-0.68 -0.21,1.61 -2.47,5.72 -2.65,9.04 -0.11,2.1 1.23,8.05 1.29,10.43 0.54,-0.22 3.78,-2.7 4.52,-3.25 0.23,-0.18 0.37,-0.24 0.57,-0.4 -0.18,-0.45 -0.7,-0.92 -1.01,-1.36 -0.22,-0.32 -0.54,-1.17 -0.76,-1.6 -0.71,-1.35 -0.55,-2.26 -0.07,-3.78 0.74,-2.31 1.88,-4.38 2.75,-6.59 0.89,-2.23 1.62,-5.37 0.25,-7.55 -0.52,-0.82 -1.5,-1.74 -2.36,-2.26 -3.7,-2.21 -3.44,-1 -4.69,0.31 -2.31,2.42 -4.15,2.43 -4.64,2.87z"/>
   <path class="fil3" d="M663.71 72.97c-0.28,-1.47 -0.84,-2.4 -0.86,-4.23 -0.03,-1.78 0.53,-2.79 0.71,-4.25l-11.37 -0.11c-2.16,-0.02 -1.78,-0.29 -2.93,0.86 -1.01,1.01 -7.38,7.13 -7.68,7.7l22.13 0.03z"/>
   <path class="fil3" d="M613.88 51.45c0.38,1.51 0.98,1.99 0.81,4.1 -0.13,1.58 -0.75,2.57 -0.97,3.79 2.3,0.17 5.03,0.06 7.38,0.08l5.53 0.05c0.9,0.01 0.86,-0.11 1.3,-0.57 1.98,-2.05 4.35,-4.27 6.45,-6.38 0.48,-0.48 0.64,-0.47 0.87,-1.03l-21.38 -0.02z"/>
   <path class="fil3" d="M619.03 66.44c-2.77,-0.18 -5.03,0.63 -3.83,-0.58 0.43,-0.43 0.83,-0.3 1.52,-0.3 1.21,0.01 2.41,0 3.61,0 1.19,0 2.06,-0.27 2.69,0.58 -0.83,0.74 -7.4,1.62 -5.63,3.39 0.82,0.82 2.66,0.96 4.03,0.63 2.77,-0.65 1.95,-1.38 2.97,-1.91 0.05,1.82 -0.87,2.18 -2.37,2.63 -1.45,0.43 -2.8,0.47 -4.34,0.04 -2.81,-0.79 -3.17,-2.78 0.43,-4.05 0.35,-0.12 0.65,-0.19 0.91,-0.43zm16.3 6.48c-0.25,-0.49 -6.92,-6.93 -7.9,-7.91 -1.16,-1.16 -0.87,-0.85 -3.05,-0.87 -1.31,-0.01 -2.62,-0.03 -3.94,-0.04 -2.61,-0.03 -5.15,-0.33 -6.72,1.18 -1.37,1.32 -1.55,4.12 -0.32,5.87 1.43,2 3.15,1.74 6.14,1.75 2.62,0 5.25,0.02 7.88,0.02 2.58,0 5.35,0.11 7.91,0z"/>
   <path class="fil3" d="M659.28 56.02c-0.56,-0.6 -2.62,0.37 -1.57,-1.7 0.36,-0.71 1,-1.56 2.15,-1.25 2.22,0.59 1.85,6.89 -6.47,5.34 -3.5,-0.65 -2.39,-3.61 -1.24,-3.73 -0.05,2.42 0.7,2.9 3.07,3 1.11,0.04 4.81,-0.31 4.06,-1.66zm-17.67 -4.51c0.38,0.51 1.17,1.2 1.67,1.69 0.6,0.58 1.11,1.09 1.7,1.68 1.16,1.14 2.25,2.2 3.4,3.35 0.78,0.78 1.18,1.42 1.88,1.44l10.37 0.08c7.33,0.01 5.79,-9.37 -0.72,-8.19l0.44 0.35c0.02,0.01 0.05,0.09 0.06,0.07 0.01,-0.01 0.04,0.05 0.06,0.08 -0.2,0.38 -0.38,0.41 -0.64,0.72l-0.77 -0.43 -0.72 0.57c-0.29,-0.2 -0.59,-0.33 -0.76,-0.66l0.75 -0.6 0.71 0.4c0.28,-0.22 0.38,-0.25 0.55,-0.56 -3.53,-0 -15.29,-0.18 -18,-0z"/>
   <path class="fil3" d="M634.64 60.64c-0.36,0.92 -2.01,3.21 -0.04,4.73 1.81,1.39 3.73,-0.32 3.33,-2.44 -0.1,-0.54 -0.38,-0.72 -0.09,-1.23 0.38,-0.67 1.93,-2.01 2.53,-2.54 0.52,-0.45 1.2,-1.22 2.33,-0.99 2.37,0.48 2.14,4.99 -2,5.13 -1.53,0.05 -1.24,0.49 -1.83,1.58 -1.97,3.69 -5.09,2.16 -5.9,0.32 -0.73,-1.65 0.17,-4.48 1.67,-4.56zm2.44 -0.56c0.04,-1.44 -0.14,-1.36 1.13,-1.2l-0.12 1.29 -1.01 -0.09zm-7.72 2.13c0.34,0.58 3.76,3.79 4.52,4.56 0.78,0.78 1.49,1.46 2.27,2.24 0.56,0.56 1.73,1.84 2.29,2.2 0.53,-0.34 1.74,-1.66 2.29,-2.2 0.78,-0.78 1.49,-1.46 2.27,-2.24 0.74,-0.74 4.22,-4.01 4.52,-4.56 -0.24,-0.61 -4.06,-4.17 -4.49,-4.6 -0.69,-0.69 -4.09,-4.19 -4.59,-4.44 -0.51,0.27 -7,6.82 -8.56,8.36 -0.08,0.08 -0.23,0.21 -0.28,0.29 -0.24,0.29 -0.1,0.05 -0.25,0.39z"/>
   <path class="fil3" d="M627.91 62.24c0.17,-0.35 0.06,-0.15 0.28,-0.4 0.8,-0.96 10.16,-10.02 10.28,-10.09 0.52,0.33 6.85,6.72 7.89,7.74l2.33 2.29c0.28,0.31 0.13,0.06 0.3,0.44l-10.51 10.43 -10.56 -10.39zm10.55 12.22c0.55,-0.37 5.81,-5.68 6.22,-6.15 1.6,-1.8 4.27,-4.13 6.15,-6.11 -0.27,-0.54 -5.31,-5.33 -6.19,-6.19 -2.09,-2.04 -4.17,-4.07 -6.18,-6.13 -0.65,0.64 -12.16,11.9 -12.37,12.32l12.37 12.26z"/>
   <path class="fil3" d="M630.58 43.04c0.08,0.22 3.22,4.91 3.6,5l8.55 0c0.3,-0.06 0.73,-0.82 1,-1.19 0.58,-0.82 2.4,-3.28 2.61,-3.82 -2.23,0.06 -3.04,-0.16 -4.72,-1.12 -2.08,-1.19 -2.63,-2.46 -3.16,-2.74 -0.69,0.47 -0.85,1.26 -3.15,2.75 -1.48,0.96 -2.66,1.1 -4.72,1.12z"/>
   <path class="fil3" d="M662.22 93.92l5.37 0.11c-0.06,0.72 -1.02,1.37 -1.21,2.21l1.27 0.55 3.18 -4.11c0.49,-0.7 1.05,-1.43 1.55,-2.17 1.42,-2.11 6.42,-9.68 6.79,-11.48 -0.92,-0.38 -2.69,-1.63 -3.56,-1.96 -0.26,0.5 -0.57,0.71 -0.72,1.3 0.76,0.33 1.52,0.91 2.31,1.28 -0.04,0.47 -0.42,1.23 -0.69,1.54 -0.91,-0.44 -1.67,-1.26 -2.29,-1.37 -0.17,0.46 -0.43,0.72 -0.58,1.18 0.54,0.63 1.57,0.94 2.15,1.58 -0.24,0.52 -0.63,1.01 -0.81,1.52 -0.87,-0.37 -1.59,-1.22 -2.41,-1.6l-0.77 1.2c0.33,0.2 0.8,0.58 1.15,0.86 0.39,0.32 0.75,0.53 1.08,0.84 -0.44,1.12 -4.08,5.68 -4.5,6.53 -0.9,-0.35 -3.52,-2.53 -4.64,-3.08 -0.26,0.22 -0.28,0.28 -0.48,0.57 -0.31,0.43 -0.28,0.26 -0.37,0.78l4.05 2.55 -5.76 -0.19 -0.12 1.34z"/>
   <path class="fil3" d="M652.61 112.01c-0.17,0.4 -0.82,1.38 -1.46,1.03 -0.58,-0.32 -0.37,-1.67 -0.33,-2.41 0.43,0.15 1.32,1.07 1.79,1.37zm9.49 -10.28c-0.39,-0.39 -0.89,-1.13 -0.71,-1.94 0.43,-1.94 3.46,-1.13 2.05,0.5 -0.29,0.33 -1.12,1.29 -1.35,1.44zm-4.48 7.1c0.25,-0.4 0.43,-0.58 0.7,-0.94 0.15,-0.19 0.2,-0.27 0.34,-0.45 0.1,-0.12 0.1,-0.14 0.22,-0.24 0.16,-0.14 0.02,-0.03 0.24,-0.16l0.36 -0.33c0.53,-0.91 0.58,-0.64 0.98,-1.08l0.64 -0.83c0.2,-0.23 0.07,-0.09 0.29,-0.23 0.51,-0.28 2.59,-2.75 3.12,-3.33 0.48,-0.53 0.92,-1.33 0.92,-2.32 0.01,-1.54 -2.08,-3.18 -3.54,-2.11 -2.45,1.77 -3.08,3.15 -0.86,6.1 -0.31,0.49 -1.26,1.52 -1.86,1.8 -0.41,-0.15 -0.83,-0.55 -1.14,-0.87l-1.23 1.03c0.18,0.38 0.84,0.89 1.18,1.1 -0.35,0.92 -3.77,4.3 -4.54,4.99 -0.72,-0.4 -2.11,-2.26 -3.46,-1.85 -0.46,0.66 -0.42,2.88 -0.28,3.81 0.2,1.26 0.96,2.14 1.89,2.47 0.44,-0.57 0.98,-1.17 1.49,-1.73l3.05 -3.26c0.24,-0.29 1.3,-1.44 1.51,-1.58z"/>
   <path class="fil5" d="M629.37 62.21c0.15,-0.35 0,-0.1 0.25,-0.39 0.05,-0.07 0.2,-0.21 0.28,-0.29 1.56,-1.54 8.05,-8.09 8.56,-8.36 0.51,0.25 3.9,3.75 4.59,4.44 0.43,0.43 4.25,3.99 4.49,4.6 -0.31,0.55 -3.78,3.82 -4.52,4.56 -0.78,0.78 -1.48,1.46 -2.27,2.24 -0.55,0.54 -1.76,1.86 -2.29,2.2 -0.56,-0.36 -1.73,-1.64 -2.29,-2.2 -0.78,-0.77 -1.49,-1.46 -2.27,-2.24 -0.77,-0.77 -4.18,-3.98 -4.52,-4.56zm9.1 10.43l10.51 -10.43c-0.16,-0.38 -0.02,-0.13 -0.3,-0.44l-2.33 -2.29c-1.04,-1.02 -7.37,-7.41 -7.89,-7.74 -0.11,0.07 -9.48,9.14 -10.28,10.09 -0.22,0.26 -0.1,0.06 -0.28,0.4l10.56 10.39z"/>
   <path class="fil3" d="M683.42 47.93c-0.62,0.13 -1.5,0.29 -2.01,0.65l0.4 1.04 1.94 -0.27c0.47,1.24 0.54,3.47 0.59,4.97 0.03,0.92 0.03,1.85 -0,2.78 -0.02,0.41 -0.05,0.84 -0.09,1.26 -0.08,0.74 -0.06,0.79 -0.35,1.01 -0.7,0.5 -4.12,-0.15 -5.15,-0.24l0 1.42 6.55 0.29c0.91,-3.71 0.5,-9.03 -0.28,-12.77 -0.25,-1.19 -1.28,-5.99 -2.23,-6.57 -0.42,-0.26 -0.96,-0.28 -1.43,-0.02 -0.33,0.18 -1.91,1.06 -2.1,1.24l0.5 1.51c0.84,-0.25 1.53,-0.94 2.32,-1.1 0.69,1.41 0.42,1.27 -1.42,2.04l0.48 1.24 1.81 -0.42 0.48 1.94z"/>
   <path class="fil3" d="M634.83 121.44c-0.19,2.1 -1.1,3.58 4.36,3.73l-1.76 -10.91 -1.87 -0.52 -0.73 7.71z"/>
   <path class="fil3" d="M673.1 33.65l1.73 0.56c-0.12,0.61 -0.59,0.8 -1.23,0.91 -0.32,-0.44 -0.48,-0.71 -0.5,-1.47zm-1.02 1.74c-1.29,1.27 -1.96,2.32 -2.24,4.99l1.62 0.48c0.07,-0.69 0.23,-2.1 0.42,-2.66 0.23,-0.64 0.97,-1.42 1.71,-1.44 1.38,1.79 -0.31,3.73 0.01,5.15 0.32,0.21 0.68,0.36 1.21,0.38 0.15,-1.06 0.39,-2.11 0.6,-3.16 0.36,-1.88 0.19,-1.55 -0.49,-2.95 0.51,-0.34 1.98,-0.67 2.61,-2.24l-5.89 -2.19c-0.39,2.18 -0.18,1.96 0.43,3.64z"/>
   <path class="fil5" d="M639.11 62.09c0.23,-0.51 1.03,-1.19 1.48,-1.57 0.37,-0.33 1.18,-1.31 1.92,-0.68 0.69,0.6 -0.4,1.72 -0.72,1.89 -0.47,0.25 -2.05,0.36 -2.67,0.36zm-4.47 -1.44c-1.5,0.09 -2.4,2.91 -1.67,4.56 0.81,1.84 3.94,3.37 5.9,-0.32 0.59,-1.09 0.3,-1.53 1.83,-1.58 4.14,-0.13 4.37,-4.65 2,-5.13 -1.14,-0.23 -1.82,0.53 -2.33,0.99 -0.6,0.53 -2.15,1.87 -2.53,2.54 -0.28,0.51 -0,0.69 0.09,1.23 0.4,2.12 -1.52,3.83 -3.33,2.44 -1.98,-1.53 -0.32,-3.81 0.04,-4.73z"/>
   <path class="fil4" d="M628.86 36.63l-0.01 1.22c0.33,1.8 -0,1.64 1.96,2.94 0.75,0.49 0.72,0.62 1.49,0.28 0.53,-0.23 1.25,-0.41 1.72,-0.69 -1.16,-0.66 -1.57,-0.59 -2.08,-2.08 -1.58,-4.58 0.95,-5.38 1.11,-6.31 0.07,-0.41 -0.9,-2.63 -1.11,-3.02 -0.51,2.17 -0.59,2.07 -1.63,3.69 -0.44,0.7 -0.22,1.25 -0.66,2.04 -0.45,0.81 -0.5,0.96 -0.79,1.94z"/>
   <path class="fil3" d="M630.92 105.58c0.64,2.44 6.86,4.83 7.03,2.37 0.02,-0.32 -0.11,-0.98 -0.31,-1.22l-4.06 -2.48c-0.46,-0.3 -1.29,-1.35 -1.93,-1.18 -0.76,0.2 -0.99,1.54 -0.74,2.51z"/>
   <path class="fil3" d="M680.83 74.65l-0.6 1.19c-0.23,-0.16 -0.26,-0.2 -0.44,-0.48 -0.13,-0.21 -0.16,-0.24 -0.23,-0.51l1.27 -0.2zm-4.73 1.36c1.12,0.51 1.32,-0.06 2.47,-0.28l1.21 1.8c0.13,0.22 0.03,0.09 0.18,0.27 0.29,0.34 0.03,0.07 0.32,0.25l1.95 -5.16 -2.6 0.64 -0.22 -1.38 -3.69 -1.56 -0.55 1.21c0.43,0.41 1.4,0.66 2.02,0.9 1,0.4 1.02,0.51 1.26,1.64 -1.96,0.98 -1.71,-0.1 -4.07,-0.5 -0.27,0.32 -0.52,0.81 -0.59,1.26 0.64,0.18 1.72,0.67 2.32,0.94z"/>
   <path class="fil5" d="M619.03 66.44c-0.25,0.24 -0.55,0.31 -0.91,0.43 -3.6,1.26 -3.24,3.26 -0.43,4.05 1.53,0.43 2.88,0.39 4.34,-0.04 1.5,-0.45 2.42,-0.81 2.37,-2.63 -1.02,0.54 -0.2,1.26 -2.97,1.91 -1.37,0.33 -3.21,0.19 -4.03,-0.63 -1.77,-1.76 4.8,-2.64 5.63,-3.39 -0.63,-0.85 -1.5,-0.58 -2.69,-0.58 -1.2,0 -2.4,0.01 -3.61,0 -0.69,-0 -1.09,-0.13 -1.52,0.3 -1.2,1.2 1.06,0.4 3.83,0.58z"/>
   <path class="fil3" d="M615.61 92.51c-0.12,-0.3 -0.26,-0.45 -0.43,-0.71l-0.49 -0.57c-1.02,0.41 -3.49,2.15 -4.71,2.76 0.13,0.39 0.24,0.55 0.55,0.81 0.68,-0.22 2.72,-1.7 3.58,-2.02l-2.93 2.86c0.1,0.42 0.28,0.64 0.52,0.9 0.8,0.05 3.14,-1.07 4.2,-1.17l-3.51 2.17c0.14,0.13 0.14,0.22 0.26,0.39l0.36 0.35c0.34,-0.14 0.87,-0.5 1.22,-0.7l3.46 -2.12c-0.12,-0.33 -0.73,-1.12 -0.96,-1.3l-3.65 1.04 2.54 -2.68z"/>
   <path class="fil5" d="M659.87 55.49c-0.25,-0.13 -0.08,-0.05 -0.33,-0.19 -0.1,-0.06 -0.19,-0.11 -0.29,-0.15 -0.33,-0.13 -0.36,-0.05 -0.63,-0.26 0.1,-0.33 0.18,-0.44 0.34,-0.64 1.01,-0.17 0.94,0.35 0.9,1.24zm-0.58 0.53c0.76,1.35 -2.94,1.7 -4.06,1.66 -2.37,-0.1 -3.12,-0.59 -3.07,-3 -1.15,0.11 -2.26,3.07 1.24,3.73 8.32,1.55 8.69,-4.76 6.47,-5.34 -1.15,-0.31 -1.79,0.54 -2.15,1.25 -1.05,2.07 1.01,1.1 1.57,1.7z"/>
   <path class="fil3" d="M632.37 108.42c-0.21,0.13 -0.55,0.38 -0.75,0.57 -0.5,0.45 -0.48,1.75 -0.04,2.23 0.13,0.14 0.5,0.49 0.66,0.59 1.16,0.78 2.69,0.79 4.27,0.61 0.73,-0.08 1.47,-0.3 0.99,-1.38 -0.57,-1.26 -1.39,-0.63 -3.52,-1.67 -0.55,-0.27 -1.12,-0.78 -1.6,-0.96z"/>
   <path class="fil3" d="M602.77 40.16c0.38,0.19 0.88,0.55 1.09,0.86 -0.34,0.38 -1.14,1.86 -1.98,1.22 -0.81,-0.61 0.56,-1.75 0.89,-2.08zm-2.49 -1.96c0.52,0.48 1.34,0.94 1.77,1.45 -0.4,0.41 -0.53,0.64 -1.43,0.6 -2.04,-0.09 -1.79,-0.45 -2.51,0.31 -0.06,0.06 -0.15,0.17 -0.19,0.24l-0.02 0.25c0.83,0.24 2.09,0.27 2.94,0.11 -0.27,0.78 -0.35,1.3 0.18,1.82 0.4,0.39 1.21,0.68 1.88,0.33 0.47,-0.24 2.26,-2.16 2.44,-2.65l-4.39 -3.22 -0.68 0.76z"/>
   <path class="fil3" d="M598.72 58.1c0.17,1.69 0.07,2.29 -1.7,2.42 -1.83,0.13 -2.06,-0.39 -2.06,-2.13l3.76 -0.29zm-4.8 -0.68c-0.1,0.81 0.11,2.56 0.52,3.19 0.48,0.73 1.42,1.09 2.67,0.99 3.56,-0.28 2.58,-2.79 2.48,-4.63l-5.67 0.45z"/>
   <path class="fil3" d="M629.46 113.23c0.09,-0.13 -0,-0.04 0.2,-0.23 0.13,-0.12 0.08,-0.06 0.19,-0.14 0.61,-0.46 1.03,-0.58 1.27,-0.97 -0.2,-0.31 -0.37,-0.54 -0.67,-0.74 -0.77,0.52 -1.42,0.94 -2.24,1.55 -0.69,0.51 -1.63,1.03 -2.23,1.56 0.21,0.39 0.3,0.48 0.64,0.79 0.49,-0.2 1.54,-0.97 1.99,-1.29 0.34,0.37 1.06,1.13 1.32,1.63 -0.34,0.42 -1.33,0.9 -1.71,1.27 -0.15,0.16 -0.04,0 -0.15,0.19 0.19,0.3 0.4,0.49 0.59,0.76 0.66,-0.34 1.67,-1.1 2.34,-1.56 0.7,-0.5 1.65,-1.07 2.23,-1.59l-0.69 -0.8c-0.08,0.08 -1.46,0.99 -1.75,1.17 -0.42,-0.33 -0.96,-1.1 -1.33,-1.58z"/>
   <path class="fil3" d="M600.89 44.59c0.17,0.63 -0.11,1.35 -0.66,1.53 -0.18,0.06 -0.15,0.03 -0.28,0.06 -0.8,0.2 -0.65,0.89 -0.64,0.89 1.34,1.17 3.71,-2.14 2.08,-3.33 -0.94,-0.68 -1.96,-0.03 -2.44,0.46 -0.51,0.52 -1.04,1.72 -1.91,0.86 -0.27,-1.25 0.54,-1.69 1.67,-1.63l0.29 -0.98c-1.31,-0.19 -2.01,0.05 -2.52,0.86 -1.62,2.57 0.88,3.87 2.33,2.67 0.65,-0.53 1.06,-1.65 2.06,-1.39z"/>
   <path class="fil3" d="M602.54 79.1c-2.28,1.38 0.1,5.08 2.24,3.7 1.45,-0.93 0.27,-2.09 0.34,-3.27 0.05,-0.9 0.89,-0.39 1.1,-0.06 0.54,0.8 0.18,0.85 -0.09,1.42l0.42 0.62c0.19,0.2 -0.05,0 0.23,0.18 0.58,-0.54 1.07,-1.03 0.53,-2.18 -1.07,-2.28 -3.37,-1.66 -3.35,0.02 0.01,1.02 0.72,1.71 0.12,2.43 -0.41,0.25 -2.25,-0.32 -0.92,-2.12l-0.61 -0.76z"/>
   <path class="fil3" d="M644.69 26.61l0.36 1.03c0.67,-0.24 1.81,-1.06 2.73,-1.5 1.92,-0.9 4.18,-1.49 5.61,-2.71 0.58,-0.49 1.49,-1.73 1.55,-2.87l-0.61 -0.65c-0.73,0.74 -0.3,2.53 -4.12,4.06 -1.89,0.76 -4.09,1.54 -5.54,2.64z"/>
   <path class="fil3" d="M632.18 27.64c0.14,-0.44 0.31,-0.64 0.33,-1.15 -0.87,-0.41 -1.68,-0.94 -2.69,-1.39 -2.58,-1.14 -4.94,-1.47 -6.28,-3.84 -0.23,-0.41 -0.33,-1.03 -0.64,-1.39 -0.11,0.13 -0.37,0.47 -0.48,0.63 -0.24,0.35 -0.21,0.29 -0.04,0.77 1.29,3.49 4.56,3.47 8.25,5.51 0.54,0.3 1.02,0.7 1.54,0.87z"/>
   <path class="fil3" d="M610.19 90.45l-0.8 -1.08c0.36,-0.27 1.79,-0.45 2.1,-0.42 -0.41,0.39 -0.91,1.14 -1.3,1.51zm-3.32 -0.78l1.48 -0.18 1.12 1.78c-0.18,0.23 -0.65,0.74 -0.79,1.03l0.61 0.86c0.31,-0.19 3.47,-4.08 3.69,-4.52l-0.56 -0.88 -6.04 0.96 0.5 0.95z"/>
   <path class="fil3" d="M596.22 54.56l0.05 -1.37c0.47,0.04 1.7,0.54 1.98,0.79l-2.02 0.58zm-2.15 -2.38c0.37,0.28 0.85,0.42 1.26,0.56l-0.09 2.06c-0.28,0.19 -0.92,0.34 -1.33,0.47l-0.07 1.1c0.73,-0.13 5.44,-1.6 5.83,-1.84l0.04 -1.07 -5.57 -2.32 -0.07 1.04z"/>
   <path class="fil3" d="M615.83 35.84c-0.23,0.51 -0.52,1.31 -0.94,1.67l-0.55 -1.88c0.3,0 0.6,0.01 0.9,0.05l0.59 0.17zm-0.46 3.03c0.37,-0.51 2.56,-4.53 2.68,-5.03l-1.11 -0.1 -0.63 1.14 -2.29 -0.19c-0.44,-1.34 -0.05,-1.26 -1.61,-1.32l1.55 4.77c0.26,0.84 0.38,0.76 1.4,0.73z"/>
   <path class="fil3" d="M597.74 67.21l-0.27 -1.34 2.07 0.24c-0.1,0.32 -1.39,0.97 -1.8,1.1zm2.82 -1.92l-5.71 -0.84c0.11,1.37 0.34,1.09 1.59,1.25l0.43 2.09 -1.11 0.64 0.23 1.11 2.58 -1.49c0.82,-0.51 1.72,-1.16 2.52,-1.53 -0.08,-1.3 -0.26,-1.15 -0.53,-1.23z"/>
   <path class="fil3" d="M626.96 108.98c-0.16,0.46 -0.81,1.27 -1.12,1.64 -0.29,-0.2 -0.73,-0.72 -0.88,-1.1l2.01 -0.55zm-1.73 4.48c0.44,-0.27 0.57,-0.75 0.89,-1.19 0.45,-0.63 2.2,-3.26 2.31,-3.66 -0.22,-0.29 -0.51,-0.64 -0.73,-0.83l-5.81 1.5c0.19,0.41 0.37,0.55 0.67,0.9l1.4 -0.35c0.4,0.6 0.9,1.08 1.29,1.71l-0.68 1.03 0.66 0.88z"/>
   <path class="fil3" d="M637.76 98.25c-0.16,-0.85 -0.25,-1.31 -0.8,-1.77 -0.29,-0.24 -1.09,-0.97 -1.4,-1.09 -1.39,-0.52 -2.53,0.39 -2.25,2.62 1.79,1.27 2.3,1.71 4.45,0.23z"/>
   <path class="fil3" d="M639.89 18.3c0.3,0.15 0.75,0.47 0.98,0.7 0.35,-0.62 0.69,-1.84 1.09,-2.62 1.12,-2.26 2.41,-3.14 1.94,-5.62 -0.26,-1.39 -0.4,-1.99 -1.64,-2.2 0.47,2.24 1.28,2.59 -0.2,5.24 -0.64,1.16 -1.93,2.99 -2.18,4.51z"/>
   <path class="fil3" d="M636.31 18.95c0.39,-0.11 0.66,-0.42 1.01,-0.67 -0.18,-1.37 -1.51,-3.32 -2.13,-4.4 -1.38,-2.39 -0.87,-2.75 -0.24,-5.33 -1.28,0.22 -1.36,0.87 -1.61,2.13 -0.5,2.51 0.69,3.28 1.87,5.56 0.45,0.86 0.7,1.88 1.11,2.72z"/>
   <path class="fil3" d="M643.99 24.24l0.22 1.14 2.7 -1.58c0.86,-0.44 1.98,-0.92 2.85,-1.43 1.09,-0.64 1.65,-1.04 2.22,-2.06 0.75,-1.31 1.15,-1.89 0.11,-2.82 -0.51,0.85 -0.49,1.54 -1.21,2.5 -1.03,1.39 -2.87,2.06 -4.53,2.9 -0.88,0.44 -1.59,0.92 -2.35,1.35z"/>
   <path class="fil3" d="M632.93 25.35c0.19,-0.25 0.25,-0.86 0.3,-1.18 -0.42,-0.17 -0.71,-0.4 -1.16,-0.64 -3.93,-2.14 -5.73,-2.12 -6.89,-6.06 -0.23,0.16 -0.35,0.32 -0.51,0.54 -0.27,0.38 -0.28,0.23 -0.13,0.75 0.86,3.18 3.52,3.79 5.72,5l2.67 1.58z"/>
   <path class="fil3" d="M637.49 6.82c-0.13,2 -0.05,3.56 0.4,5.37 0.55,2.26 0.42,3.03 0.2,5.36l1.17 0.12c0.12,-2.19 0.12,-3.49 -0.3,-5.55 -0.46,-2.25 -0.42,-3.41 -0.36,-5.74l-1.11 0.44z"/>
   <path class="fil3" d="M626.66 15.56c-0.11,3.86 3.08,4.07 5.98,6.73 0.31,0.29 0.69,0.7 0.98,0.91l0.64 -0.97c-0.61,-0.98 -3.04,-2.4 -4.06,-3.02 -1.76,-1.07 -2.36,-1.75 -2.66,-4.33 -0.38,0.2 -0.52,0.43 -0.87,0.68z"/>
   <path class="fil3" d="M649.79 14.93c-0.24,0.27 -0.22,0.97 -0.32,1.39 -0.56,2.29 -2.27,2.57 -4.5,4.19l-1.96 1.53c0.06,0.51 0.34,0.89 0.62,1.15 1.11,-1.12 2.43,-2.25 4.12,-3.17 1.69,-0.93 2.66,-1.96 2.85,-4.48l-0.81 -0.62z"/>
   <path class="fil3" d="M641.59 19.85c0.14,0.41 0.4,0.63 0.64,0.91 0.57,-0.28 0.32,-0.32 0.81,-0.95 0.61,-0.78 1.81,-2 2.58,-2.6 1.53,-1.2 2.14,-1.92 2.02,-4.79 -0.25,-0.27 -0.57,-0.5 -1.01,-0.64 0.21,5.04 -2.3,3.99 -5.03,8.06z"/>
   <path class="fil3" d="M634.8 20.79c0.4,-0.18 0.66,-0.49 0.86,-1 -0.55,-0.53 -1.04,-1.19 -1.52,-1.7 -0.52,-0.57 -1.12,-1.01 -1.71,-1.56 -2.34,-2.2 -1.63,-2.15 -1.87,-4.76 -0.69,0.35 -0.92,0.43 -0.99,0.88 -0.26,1.78 0.44,3.09 1.56,4.16 1.03,0.99 3.06,2.6 3.66,3.98z"/>
   <path class="fil3" d="M666.55 39.16l1.22 0.14 1.52 -7.76 -1.45 -0.15c-0.22,1.66 -1.43,6.5 -1.29,7.77z"/>
   <path class="fil3" d="M676.53 40.34c0.36,0.17 0.74,0.33 1.25,0.38 0.3,-0.93 0.84,-1.81 1.56,-2.15 1.14,-0.54 2.04,0.34 2.69,0.73l0.57 -0.86c-2.36,-3.69 -6.28,-0.43 -6.07,1.89z"/>
   <path class="fil3" d="M619.67 101.3c0.19,-0.55 0.52,-1.14 0.78,-1.7 0.21,-0.45 0.22,-0.44 -0.01,-0.78l-0.5 -0.55c-0.01,-0.04 -0.04,-0.04 -0.07,-0.06 -0.51,0.77 -0.83,1.86 -1.23,2.75 -0.34,0.78 -1.4,1.32 -2.11,1.71 0.17,0.52 0.23,0.62 0.64,0.89 1.23,-0.61 1.5,-1.22 2.47,-1.28 0.83,-0.05 2.64,-0.02 3.31,-0.24l-0.73 -0.93 -2.54 0.19z"/>
   <path class="fil3" d="M594.72 48.41l-0.26 1c3.87,0.61 2.25,1.1 5.14,3.02l0.27 -1.19c-0.44,-0.32 -1.64,-1.16 -1.86,-1.65l2.46 -0.7 0.25 -1.13c-0.95,0.18 -2.04,0.6 -2.95,0.9 -1.27,0.42 -1.87,-0.2 -3.05,-0.25z"/>
   <path class="fil3" d="M623.12 105.63c0.16,-0.63 0.47,-1.14 0.73,-1.72 0.43,-0.99 -0.46,-1.11 -0.53,-1.35 -0.01,-0.04 -0.05,-0.04 -0.07,-0.05 -1.37,2.07 -0.49,2.74 -2.16,3.83 -0.38,0.25 -0.78,0.44 -1.1,0.82l0.67 0.75c0.41,-0.27 0.66,-0.43 1.12,-0.76 0.38,-0.28 0.63,-0.5 1.24,-0.56 1.15,-0.11 2.22,-0.13 3.39,-0.27l-0.72 -0.94 -2.57 0.26z"/>
   <path class="fil3" d="M607.33 34.16l0.1 0.68c0.57,0.18 1.86,-0.22 2.88,-0.26l0.71 4.2 1.13 -0.06c-0.12,-1.02 -0.62,-4.54 -0.96,-5.16 -0.81,0.04 -3.32,0.33 -3.87,0.61z"/>
   <path class="fil3" d="M605.38 85.41c0.33,-0.32 3.42,-1.86 4.04,-2.12 -0.13,-0.41 -0.31,-0.68 -0.58,-0.93l-4.86 2.44c0.14,0.46 1.64,2.95 1.96,3.27l0.75 -0.39c-0.25,-0.67 -0.95,-1.61 -1.29,-2.28z"/>
   <path class="fil3" d="M634.61 103.17c-0.29,-0.58 -0.78,-1.01 -0.96,-1.8 -0.24,-1.02 0.32,-1.48 0.96,-1.79 -0.81,-0.67 -3.92,-1.69 -3.34,0.98 0.28,1.28 0.48,1.03 1.4,1.67 0.56,0.39 1.3,0.7 1.94,0.94z"/>
   <path class="fil3" d="M601.84 69.52l-0.43 -0.86c-0.48,0.08 -4.86,1.88 -5.13,2.11 0.41,0.92 1.05,2.56 1.64,3.3 0.37,-0.09 0.55,-0.14 0.78,-0.37 -0.28,-0.84 -0.86,-1.5 -1.06,-2.4l4.21 -1.77z"/>
   <path class="fil3" d="M683.49 67.5c0.26,-0.4 1.17,-3.69 1.2,-4.25l-3 -0.44c-0.13,0.16 -0.06,0.02 -0.21,0.32l-0.27 1.01 1.57 0.19c0.15,0.19 0.09,0 0.11,0.32 0,0.04 -0.06,0.33 -0.07,0.36l-0.49 2.15c0.33,0.21 0.78,0.29 1.16,0.34z"/>
   <path class="fil3" d="M676.87 68.94c0.79,0.31 4.91,2.04 5.37,2.01l0.42 -1.23 -5.4 -2.07 -0.4 1.29z"/>
   <path class="fil5" d="M594.96 58.39c0,1.74 0.23,2.26 2.06,2.13 1.77,-0.13 1.87,-0.72 1.7,-2.42l-3.76 0.29z"/>
   <path class="fil3" d="M602.35 36.45c0.19,0.67 1.18,1.65 1.63,2.22 0.36,0.46 1.35,1.83 1.7,2.12l0.88 -0.54c-0.25,-0.56 -1.14,-1.51 -1.62,-2.09 -0.47,-0.58 -1.32,-1.56 -1.58,-2.14 -0.61,0.09 -0.53,0.24 -1.01,0.44z"/>
   <path class="fil3" d="M614.7 100.34c0.73,-0.51 4.2,-2.58 4.57,-2.99l-0.63 -0.79c-0.91,0.39 -2.58,1.65 -3.5,2.25 -0.3,0.19 -0.8,0.52 -1.14,0.7l0.7 0.83z"/>
   <polygon class="fil3" points="605.43,76.48 605.01,75.51 599.86,77.88 600.31,78.8 "/>
   <path class="fil5" d="M662.1 101.73c0.22,-0.15 1.06,-1.11 1.35,-1.44 1.41,-1.63 -1.62,-2.44 -2.05,-0.5 -0.18,0.81 0.32,1.55 0.71,1.94z"/>
   <path class="fil3" d="M639.11 62.09c0.63,0 2.2,-0.11 2.67,-0.36 0.33,-0.17 1.42,-1.29 0.72,-1.89 -0.74,-0.63 -1.55,0.35 -1.92,0.68 -0.45,0.39 -1.25,1.07 -1.48,1.57z"/>
   <path class="fil3" d="M678.1 45.4l0.29 1.09 -1.06 0.37c0.06,0.19 0.09,0.34 0.14,0.51 0.04,0.1 0.06,0.17 0.09,0.25 0.14,0.3 0.06,0.15 0.19,0.31l1.06 -0.34 0.29 1.02c0.45,-0.05 0.72,-0.14 1.06,-0.38l-0.27 -0.97c-0.5,-0.08 -0.51,0.09 -1.19,0.25l-0.25 -0.95 0.74 -0.26c0.27,-0.15 0.13,-0.06 0.28,-0.2l-0.32 -1.01 -1.04 0.32z"/>
   <path class="fil5" d="M602.77 40.16c-0.33,0.34 -1.7,1.47 -0.89,2.08 0.84,0.64 1.64,-0.84 1.98,-1.22 -0.21,-0.31 -0.71,-0.67 -1.09,-0.86z"/>
   <path class="fil5" d="M652.61 112.01c-0.47,-0.31 -1.36,-1.22 -1.79,-1.37 -0.05,0.73 -0.26,2.09 0.33,2.41 0.64,0.35 1.29,-0.63 1.46,-1.03z"/>
   <path class="fil3" d="M599.86 74.48c0.3,0.56 0.42,1.19 0.88,1.75l0.95 -0.38 -0.86 -1.79 -0.98 0.41z"/>
   <path class="fil3" d="M604.88 36.63c0.1,0.43 0.21,0.61 0.48,0.89l1.83 -0.75 -0.38 -0.92 -1.93 0.78z"/>
   <path class="fil6" d="M654.02 84.03c0.12,-0.13 0.18,0.08 0.18,-0.65l-0 -6.24 1.12 0 0 6.14 0.31 -0.07 0.19 -0.15 0.18 -0.16 0.19 -0.04 0.17 -0.17c0.22,0.05 0.18,0.11 0.18,-0.09l-0.18 0.09 -0.17 0.17 -0.19 0.04 -0.18 0.16 -0.19 0.15c-0.32,-0.34 -0.19,-0.73 -0.19,-1.52l-0.02 -4.56c-0.42,-0.15 -0.85,-0.12 -1.33,-0.04l-0.05 6.94z"/>
   <path class="fil5" d="M673.1 33.65c0.02,0.75 0.18,1.03 0.5,1.47 0.65,-0.1 1.11,-0.3 1.23,-0.91l-1.73 -0.56z"/>
   <path class="fil5" d="M597.74 67.21c0.41,-0.13 1.7,-0.79 1.8,-1.1l-2.07 -0.24 0.27 1.34z"/>
   <path class="fil5" d="M598.24 53.97c-0.27,-0.25 -1.51,-0.75 -1.98,-0.79l-0.05 1.37 2.02 -0.58z"/>
   <path class="fil5" d="M614.89 37.51c0.42,-0.36 0.7,-1.16 0.94,-1.67l-0.59 -0.17c-0.3,-0.03 -0.6,-0.04 -0.9,-0.05l0.55 1.88z"/>
   <path class="fil5" d="M624.96 109.53c0.15,0.38 0.59,0.9 0.88,1.1 0.31,-0.38 0.97,-1.18 1.12,-1.64l-2.01 0.55z"/>
   <path class="fil5" d="M610.19 90.45c0.39,-0.36 0.89,-1.11 1.3,-1.51 -0.32,-0.02 -1.74,0.16 -2.1,0.42l0.8 1.08z"/>
   <path class="fil6" d="M660.28 106.1l0.99 -0 0.02 0.38 -0 0.68 -1 0 0 -1.06zm-0.79 0.61c0.17,-0.11 0.08,-0.02 0.21,-0.16l0.43 -0.44 0.08 1.15c-0.11,0 -0.52,0.04 -0.6,0.03 -0.57,-0.06 -0.31,0.05 -0.49,-0.25 -0.22,0.12 -0.08,0.02 -0.24,0.16 -0.12,0.1 -0.12,0.12 -0.22,0.24 -0.13,0.18 -0.19,0.26 -0.34,0.45 -0.27,0.36 -0.45,0.54 -0.7,0.94l0.22 -0.17c0.24,-0.23 0.93,-1.3 1.12,-1.35 0.12,-0.04 -0.07,-0.24 0.2,0.1l1.07 0.03 -0.02 1 -1.03 0.01c0.18,0.19 0.09,0.16 0.54,0.16 0.42,-0 0.44,0.06 0.49,-0.17 0.24,-0.14 0.03,0.17 0.12,-0.17 0,-0 0.03,-0.31 0.03,-0.32 0,-0.33 0.05,-0.43 -0.13,-0.51 0.55,-0.35 0.44,-0.02 1.11,-0.23 0.21,-1.36 0.09,-1.21 -1.01,-1.22 0.15,-0.4 -0.07,-0.09 0.27,-0.43l0.79 -0.97c-0.22,0.14 -0.09,0.01 -0.29,0.23l-0.64 0.83c-0.4,0.43 -0.45,0.17 -0.98,1.08z"/>
   <path class="fil5" d="M637.09 60.08l1.01 0.09 0.12 -1.29c-1.27,-0.16 -1.09,-0.24 -1.13,1.2z"/>
   <polygon class="fil3" points="659.19,108.44 660.22,108.43 660.24,107.43 659.17,107.4 "/>
   <polygon class="fil3" points="660.27,107.16 661.27,107.16 661.28,106.48 661.26,106.1 660.28,106.1 "/>
   <path class="fil3" d="M658.62 54.88c0.27,0.21 0.3,0.12 0.63,0.26 0.1,0.04 0.19,0.1 0.29,0.15 0.24,0.15 0.08,0.06 0.33,0.19 0.04,-0.9 0.11,-1.41 -0.9,-1.24 -0.17,0.2 -0.24,0.31 -0.34,0.64z"/>
   <path class="fil5" d="M679.56 74.85c0.08,0.27 0.1,0.3 0.23,0.51 0.19,0.28 0.22,0.32 0.44,0.48l0.6 -1.19 -1.27 0.2z"/>
  </g>
 </g>
</svg>
