<?xml version="1.0" encoding="utf-8"?>
<svg xmlns="http://www.w3.org/2000/svg" xmlns:xlink="http://www.w3.org/1999/xlink" style="margin: auto; background: rgb(255, 255, 255); display: block; shape-rendering: auto;" width="71px" height="71px" viewBox="0 0 100 100" preserveAspectRatio="xMidYMid">
<g transform="translate(50 50)">
<g transform="rotate(4.6449)">
<animateTransform attributeName="transform" type="rotate" values="0;45" keyTimes="0;1" dur="0.2s" repeatCount="indefinite"></animateTransform><path d="M30.508195620193604 -5.5 L38.508195620193604 -5.5 L38.508195620193604 5.5 L30.508195620193604 5.5 A31 31 0 0 1 25.46163930133064 17.683464708278613 L25.46163930133064 17.683464708278613 L31.11849355082302 23.340318957770993 L23.340318957770993 31.118493550823015 L17.683464708278613 25.461639301330635 A31 31 0 0 1 5.500000000000004 30.5081956201936 L5.500000000000004 30.5081956201936 L5.500000000000005 38.508195620193604 L-5.5 38.508195620193604 L-5.500000000000001 30.508195620193604 A31 31 0 0 1 -17.683464708278606 25.46163930133064 L-17.683464708278606 25.46163930133064 L-23.340318957770986 31.11849355082302 L-31.118493550823015 23.340318957770997 L-25.461639301330635 17.683464708278613 A31 31 0 0 1 -30.5081956201936 5.500000000000006 L-30.5081956201936 5.500000000000006 L-38.508195620193604 5.500000000000007 L-38.508195620193604 -5.499999999999998 L-30.508195620193604 -5.499999999999999 A31 31 0 0 1 -25.461639301330642 -17.683464708278606 L-25.461639301330642 -17.683464708278606 L-31.118493550823025 -23.340318957770986 L-23.340318957770997 -31.118493550823015 L-17.683464708278613 -25.461639301330635 A31 31 0 0 1 -5.500000000000008 -30.5081956201936 L-5.500000000000008 -30.5081956201936 L-5.50000000000001 -38.508195620193604 L5.499999999999995 -38.508195620193604 L5.4999999999999964 -30.508195620193604 A31 31 0 0 1 17.683464708278603 -25.461639301330642 L17.683464708278603 -25.461639301330642 L23.340318957770982 -31.118493550823025 L31.118493550823015 -23.340318957770997 L25.461639301330635 -17.683464708278617 A31 31 0 0 1 30.5081956201936 -5.500000000000011 M0 -21A21 21 0 1 0 0 21 A21 21 0 1 0 0 -21" fill="#27a2fc"></path></g></g>
<!-- [ldio] generated by https://loading.io/ --></svg>