<?xml version="1.0" encoding="utf-8"?>
<svg width="375" viewBox="0 0 375 375" height="375" version="1.0" xmlns="http://www.w3.org/2000/svg" xmlns:xlink="http://www.w3.org/1999/xlink">
  <defs>
    <g id="c">
      <path d="M 21.65625 0 L 18.5625 0 L 18.5625 -10.140625 L 6.4375 -10.140625 L 6.4375 0 L 3.328125 0 L 3.328125 -23.140625 L 6.4375 -23.140625 L 6.4375 -13.125 L 18.5625 -13.125 L 18.5625 -23.140625 L 21.65625 -23.140625 Z M 21.65625 0"/>
    </g>
    <g id="d">
      <path d="M 21.25 -23.140625 L 12.578125 -7.71875 L 12.578125 0 L 9.46875 0 L 9.46875 -7.71875 L 0.890625 -23.140625 L 4.734375 -23.140625 L 11.109375 -11.234375 L 17.4375 -23.140625 Z M 21.25 -23.140625"/>
    </g>
    <g id="e">
      <path d="M 3.328125 -23.140625 L 9.65625 -23.140625 C 12.539062 -23.140625 14.925781 -22.566406 16.8125 -21.421875 C 18.695312 -20.285156 20.070312 -18.8125 20.9375 -17 C 21.800781 -15.195312 22.234375 -13.296875 22.234375 -11.296875 C 22.234375 -9.054688 21.710938 -7.078125 20.671875 -5.359375 C 19.628906 -3.640625 18.234375 -2.316406 16.484375 -1.390625 C 14.734375 -0.460938 12.832031 0 10.78125 0 L 3.328125 0 Z M 10.171875 -3.015625 C 11.878906 -3.015625 13.40625 -3.347656 14.75 -4.015625 C 16.09375 -4.691406 17.144531 -5.664062 17.90625 -6.9375 C 18.664062 -8.21875 19.046875 -9.742188 19.046875 -11.515625 C 19.046875 -13.328125 18.648438 -14.882812 17.859375 -16.1875 C 17.066406 -17.488281 16.015625 -18.472656 14.703125 -19.140625 C 13.390625 -19.816406 11.976562 -20.15625 10.46875 -20.15625 L 6.4375 -20.15625 L 6.4375 -3.015625 Z M 10.171875 -3.015625"/>
    </g>
    <g id="f">
      <path d="M 16.0625 0 L 10.625 -8.546875 C 10.457031 -8.523438 10.203125 -8.515625 9.859375 -8.515625 L 6.4375 -8.515625 L 6.4375 0 L 3.328125 0 L 3.328125 -23.140625 L 9.5 -23.140625 C 11.082031 -23.140625 12.488281 -22.859375 13.71875 -22.296875 C 14.957031 -21.742188 15.929688 -20.925781 16.640625 -19.84375 C 17.347656 -18.769531 17.703125 -17.476562 17.703125 -15.96875 C 17.703125 -14.539062 17.382812 -13.226562 16.75 -12.03125 C 16.125 -10.832031 15.160156 -9.925781 13.859375 -9.3125 L 19.6875 0 Z M 9.796875 -11.515625 C 11.453125 -11.515625 12.648438 -11.953125 13.390625 -12.828125 C 14.128906 -13.703125 14.5 -14.707031 14.5 -15.84375 C 14.5 -16.519531 14.34375 -17.1875 14.03125 -17.84375 C 13.71875 -18.507812 13.222656 -19.0625 12.546875 -19.5 C 11.878906 -19.9375 11.035156 -20.15625 10.015625 -20.15625 L 6.4375 -20.15625 L 6.4375 -11.515625 Z M 9.796875 -11.515625"/>
    </g>
    <g id="g">
      <path d="M 1.890625 -11.546875 C 1.890625 -13.660156 2.421875 -15.625 3.484375 -17.4375 C 4.554688 -19.25 5.992188 -20.691406 7.796875 -21.765625 C 9.597656 -22.847656 11.566406 -23.390625 13.703125 -23.390625 C 15.804688 -23.390625 17.765625 -22.847656 19.578125 -21.765625 C 21.390625 -20.691406 22.832031 -19.25 23.90625 -17.4375 C 24.988281 -15.625 25.53125 -13.660156 25.53125 -11.546875 C 25.53125 -9.421875 25 -7.445312 23.9375 -5.625 C 22.875 -3.8125 21.425781 -2.378906 19.59375 -1.328125 C 17.769531 -0.273438 15.804688 0.25 13.703125 0.25 C 11.566406 0.25 9.59375 -0.269531 7.78125 -1.3125 C 5.96875 -2.351562 4.53125 -3.773438 3.46875 -5.578125 C 2.414062 -7.378906 1.890625 -9.367188 1.890625 -11.546875 Z M 5.09375 -11.515625 C 5.09375 -9.941406 5.472656 -8.484375 6.234375 -7.140625 C 7.003906 -5.796875 8.054688 -4.726562 9.390625 -3.9375 C 10.722656 -3.144531 12.179688 -2.75 13.765625 -2.75 C 15.335938 -2.75 16.78125 -3.140625 18.09375 -3.921875 C 19.40625 -4.703125 20.441406 -5.769531 21.203125 -7.125 C 21.960938 -8.476562 22.34375 -9.953125 22.34375 -11.546875 C 22.34375 -13.148438 21.957031 -14.632812 21.1875 -16 C 20.414062 -17.363281 19.367188 -18.441406 18.046875 -19.234375 C 16.722656 -20.023438 15.273438 -20.421875 13.703125 -20.421875 C 12.117188 -20.421875 10.664062 -20.019531 9.34375 -19.21875 C 8.019531 -18.414062 6.976562 -17.332031 6.21875 -15.96875 C 5.46875 -14.601562 5.09375 -13.117188 5.09375 -11.515625 Z M 5.09375 -11.515625"/>
    </g>
    <g id="h">
      <path d="M 17.0625 -23.140625 L 17.0625 -20.15625 L 6.4375 -20.15625 L 6.4375 -12.796875 L 15.75 -12.796875 L 15.75 -9.828125 L 6.4375 -9.828125 L 6.4375 0 L 3.328125 0 L 3.328125 -23.140625 Z M 17.0625 -23.140625"/>
    </g>
    <g id="i">
      <path d="M 6.4375 -23.140625 L 6.4375 0 L 3.328125 0 L 3.328125 -23.140625 Z M 6.4375 -23.140625"/>
    </g>
    <g id="j">
      <path d="M 15.296875 -19.015625 C 14.460938 -19.460938 13.578125 -19.820312 12.640625 -20.09375 C 11.703125 -20.375 10.816406 -20.515625 9.984375 -20.515625 C 8.722656 -20.515625 7.722656 -20.226562 6.984375 -19.65625 C 6.253906 -19.09375 5.890625 -18.320312 5.890625 -17.34375 C 5.890625 -16.382812 6.320312 -15.597656 7.1875 -14.984375 C 8.050781 -14.378906 9.28125 -13.78125 10.875 -13.1875 C 12.070312 -12.757812 13.082031 -12.296875 13.90625 -11.796875 C 14.726562 -11.296875 15.410156 -10.601562 15.953125 -9.71875 C 16.492188 -8.832031 16.765625 -7.707031 16.765625 -6.34375 C 16.765625 -5.101562 16.453125 -3.976562 15.828125 -2.96875 C 15.210938 -1.96875 14.332031 -1.179688 13.1875 -0.609375 C 12.050781 -0.0351562 10.71875 0.25 9.1875 0.25 C 7.757812 0.25 6.382812 0.0195312 5.0625 -0.4375 C 3.738281 -0.894531 2.570312 -1.472656 1.5625 -2.171875 L 2.9375 -4.640625 C 3.726562 -4.046875 4.675781 -3.539062 5.78125 -3.125 C 6.894531 -2.707031 7.929688 -2.5 8.890625 -2.5 C 10.128906 -2.5 11.210938 -2.816406 12.140625 -3.453125 C 13.066406 -4.097656 13.53125 -5.046875 13.53125 -6.296875 C 13.53125 -7.367188 13.140625 -8.21875 12.359375 -8.84375 C 11.585938 -9.476562 10.5 -10.070312 9.09375 -10.625 C 7.789062 -11.113281 6.707031 -11.59375 5.84375 -12.0625 C 4.976562 -12.53125 4.234375 -13.175781 3.609375 -14 C 2.992188 -14.820312 2.6875 -15.851562 2.6875 -17.09375 C 2.6875 -18.90625 3.320312 -20.367188 4.59375 -21.484375 C 5.863281 -22.609375 7.507812 -23.203125 9.53125 -23.265625 C 12.03125 -23.265625 14.347656 -22.644531 16.484375 -21.40625 Z M 15.296875 -19.015625"/>
    </g>
    <g id="k">
      <path d="M 0.6875 0 L 0.6875 -6.53125 L 4.671875 -6.53125 L 4.671875 -5.890625 L 1.46875 -5.890625 L 1.46875 -3.59375 L 4.1875 -3.59375 L 4.1875 -2.953125 L 1.46875 -2.953125 L 1.46875 0 Z M 0.6875 0"/>
    </g>
    <g id="l">
      <path d="M 0.6875 0 L 0.6875 -6.53125 L 1.46875 -6.53125 L 1.46875 0 Z M 0.6875 0"/>
    </g>
    <g id="m">
      <path d="M 2.765625 0.109375 C 2.285156 0.109375 1.867188 0.0234375 1.515625 -0.140625 C 1.160156 -0.316406 0.882812 -0.5625 0.6875 -0.875 C 0.5 -1.1875 0.40625 -1.546875 0.40625 -1.953125 L 1.234375 -1.953125 C 1.234375 -1.703125 1.289062 -1.46875 1.40625 -1.25 C 1.519531 -1.039062 1.691406 -0.867188 1.921875 -0.734375 C 2.148438 -0.609375 2.429688 -0.546875 2.765625 -0.546875 C 3.210938 -0.546875 3.554688 -0.648438 3.796875 -0.859375 C 4.035156 -1.078125 4.15625 -1.34375 4.15625 -1.65625 C 4.15625 -1.914062 4.097656 -2.125 3.984375 -2.28125 C 3.878906 -2.445312 3.726562 -2.578125 3.53125 -2.671875 C 3.34375 -2.773438 3.125 -2.863281 2.875 -2.9375 C 2.632812 -3.007812 2.382812 -3.09375 2.125 -3.1875 C 1.613281 -3.363281 1.238281 -3.578125 1 -3.828125 C 0.757812 -4.085938 0.640625 -4.425781 0.640625 -4.84375 C 0.628906 -5.195312 0.707031 -5.507812 0.875 -5.78125 C 1.039062 -6.050781 1.273438 -6.257812 1.578125 -6.40625 C 1.890625 -6.5625 2.257812 -6.640625 2.6875 -6.640625 C 3.101562 -6.640625 3.460938 -6.5625 3.765625 -6.40625 C 4.078125 -6.25 4.316406 -6.035156 4.484375 -5.765625 C 4.660156 -5.492188 4.75 -5.179688 4.75 -4.828125 L 3.9375 -4.828125 C 3.9375 -5.015625 3.890625 -5.195312 3.796875 -5.375 C 3.703125 -5.550781 3.5625 -5.691406 3.375 -5.796875 C 3.1875 -5.910156 2.945312 -5.96875 2.65625 -5.96875 C 2.300781 -5.976562 2.007812 -5.890625 1.78125 -5.703125 C 1.5625 -5.515625 1.453125 -5.253906 1.453125 -4.921875 C 1.453125 -4.640625 1.53125 -4.425781 1.6875 -4.28125 C 1.84375 -4.132812 2.0625 -4.007812 2.34375 -3.90625 C 2.632812 -3.8125 2.96875 -3.703125 3.34375 -3.578125 C 3.65625 -3.472656 3.929688 -3.34375 4.171875 -3.1875 C 4.421875 -3.039062 4.613281 -2.847656 4.75 -2.609375 C 4.894531 -2.367188 4.96875 -2.066406 4.96875 -1.703125 C 4.96875 -1.390625 4.882812 -1.09375 4.71875 -0.8125 C 4.5625 -0.539062 4.316406 -0.316406 3.984375 -0.140625 C 3.660156 0.0234375 3.253906 0.109375 2.765625 0.109375 Z M 2.765625 0.109375"/>
    </g>
    <g id="n">
      <path d="M 0.6875 0 L 0.6875 -6.53125 L 1.46875 -6.53125 L 1.46875 -3.640625 L 4.859375 -3.640625 L 4.859375 -6.53125 L 5.640625 -6.53125 L 5.640625 0 L 4.859375 0 L 4.859375 -3 L 1.46875 -3 L 1.46875 0 Z M 0.6875 0"/>
    </g>
    <g id="o">
      <path d="M 0.6875 0 L 0.6875 -6.53125 L 1.46875 -6.53125 L 4.953125 -1.296875 L 4.953125 -6.53125 L 5.734375 -6.53125 L 5.734375 0 L 4.953125 0 L 1.46875 -5.234375 L 1.46875 0 Z M 0.6875 0"/>
    </g>
    <g id="p">
      <path d="M 3.5 0.109375 C 2.882812 0.109375 2.347656 -0.03125 1.890625 -0.3125 C 1.429688 -0.59375 1.070312 -0.984375 0.8125 -1.484375 C 0.5625 -1.992188 0.4375 -2.582031 0.4375 -3.25 C 0.4375 -3.914062 0.566406 -4.503906 0.828125 -5.015625 C 1.085938 -5.523438 1.453125 -5.921875 1.921875 -6.203125 C 2.398438 -6.492188 2.960938 -6.640625 3.609375 -6.640625 C 4.335938 -6.640625 4.945312 -6.460938 5.4375 -6.109375 C 5.925781 -5.753906 6.242188 -5.265625 6.390625 -4.640625 L 5.484375 -4.640625 C 5.398438 -5.035156 5.191406 -5.347656 4.859375 -5.578125 C 4.535156 -5.804688 4.117188 -5.921875 3.609375 -5.921875 C 3.128906 -5.921875 2.710938 -5.8125 2.359375 -5.59375 C 2.003906 -5.382812 1.726562 -5.078125 1.53125 -4.671875 C 1.332031 -4.273438 1.234375 -3.800781 1.234375 -3.25 C 1.234375 -2.695312 1.328125 -2.222656 1.515625 -1.828125 C 1.710938 -1.429688 1.984375 -1.125 2.328125 -0.90625 C 2.671875 -0.695312 3.070312 -0.59375 3.53125 -0.59375 C 4.226562 -0.59375 4.753906 -0.796875 5.109375 -1.203125 C 5.460938 -1.609375 5.660156 -2.164062 5.703125 -2.875 L 3.828125 -2.875 L 3.828125 -3.484375 L 6.515625 -3.484375 L 6.515625 0 L 5.796875 0 L 5.734375 -1.078125 C 5.492188 -0.691406 5.203125 -0.394531 4.859375 -0.1875 C 4.515625 0.0078125 4.0625 0.109375 3.5 0.109375 Z M 3.5 0.109375"/>
    </g>
    <g id="r">
      <path d="M 0.28125 0 L 2.6875 -6.53125 L 3.515625 -6.53125 L 5.90625 0 L 5.078125 0 L 4.484375 -1.671875 L 1.703125 -1.671875 L 1.09375 0 Z M 1.9375 -2.3125 L 4.25 -2.3125 L 3.09375 -5.546875 Z M 1.9375 -2.3125"/>
    </g>
    <g id="s">
      <path d="M 0.6875 0 L 0.6875 -6.53125 L 1.609375 -6.53125 L 3.953125 -1.984375 L 6.28125 -6.53125 L 7.203125 -6.53125 L 7.203125 0 L 6.421875 0 L 6.421875 -5.125 L 4.25 -0.9375 L 3.65625 -0.9375 L 1.46875 -5.125 L 1.46875 0 Z M 0.6875 0"/>
    </g>
    <g id="t">
      <path d="M 0.6875 0 L 0.6875 -6.53125 L 4.734375 -6.53125 L 4.734375 -5.890625 L 1.46875 -5.890625 L 1.46875 -3.609375 L 4.453125 -3.609375 L 4.453125 -2.96875 L 1.46875 -2.96875 L 1.46875 -0.640625 L 4.734375 -0.640625 L 4.734375 0 Z M 0.6875 0"/>
    </g>
    <clipPath id="a">
      <path d="M 173 186 L 202 186 L 202 219.773438 L 173 219.773438 Z M 173 186"/>
    </clipPath>
    <clipPath id="b">
      <path d="M 131.230469 76.523438 L 243.730469 76.523438 L 243.730469 219 L 131.230469 219 Z M 131.230469 76.523438"/>
    </clipPath>
  </defs>
  <g clip-path="url(#a)" style="" transform="matrix(1.53514, 0, 0, 1.53514, -106.080536, -101.53894)">
    <path d="M 201.402344 190.835938 C 201.402344 190.835938 179.496094 182.785156 180.453125 207.214844 C 180.792969 216.15625 184.207031 208.511719 190.144531 219.773438 C 190.144531 219.773438 179.429688 219.839844 177.042969 217.589844 C 176.019531 216.632812 172.878906 212.675781 173.5625 204.894531 C 174.996094 188.789062 192.121094 180.804688 201.402344 190.835938 Z M 201.402344 190.835938" style="fill: rgb(85, 127, 156);"/>
  </g>
  <path d="M 162.767 161.353 C 166.329 158.733 170.73 161.665 168.529 166.384 C 166.438 171.097 159.102 173.4 159.102 173.4 C 158.683 165.965 162.034 161.875 162.767 161.353 Z M 236.622 176.753 C 236.622 176.753 234.313 184.506 237.251 189.22 C 240.184 193.933 245.317 191.737 245.106 187.018 C 245.209 186.078 243.536 180.735 236.622 176.753 Z M 229.81 169.737 C 221.222 161.454 191.473 159.05 180.368 167.535 C 164.657 179.475 157.429 169.737 151.877 188.278 C 149.257 196.871 149.358 207.138 151.559 213.842 C 157.844 233.749 164.235 232.804 164.235 232.804 C 164.235 232.804 154.282 225.47 158.054 205.877 C 161.724 187.229 177.434 180.634 189.483 182.204 C 196.917 183.146 205.194 188.381 208.336 195.51 C 215.67 212.059 207.082 218.555 207.082 218.555 C 202.37 209.129 194.717 206.819 188.541 212.059 C 179.738 220.127 188.851 233.852 201.423 231.862 C 211.898 230.182 221.642 219.916 216.509 199.486 C 227.404 196.452 229.288 187.547 227.819 179.793 C 227.296 176.123 235.362 175.181 229.81 169.737 Z M 196.396 214.573 C 192.415 214.782 189.375 218.555 189.793 215.52 C 190.531 210.489 200.481 211.749 202.993 216.984 C 202.993 216.984 199.118 214.472 196.396 214.573 Z M 213.888 193.1 C 213.888 193.1 212.425 179.793 184.558 177.904 C 184.558 177.904 193.566 173.923 208.024 178.223 C 212.216 179.475 211.477 183.985 215.04 186.186 C 218.499 188.381 217.451 192.888 213.888 193.1 Z M 213.888 193.1" style="fill: rgb(85, 127, 156);"/>
  <g clip-path="url(#b)" style="" transform="matrix(1.53514, 0, 0, 1.53514, -106.080536, -101.53894)">
    <path d="M 216.688 123.887 C 216.141 125.934 214.094 127.23 212.047 126.684 C 210 126.137 208.703 124.09 209.25 122.043 C 209.793 119.996 211.844 118.699 213.891 119.246 C 215.938 119.723 217.164 121.84 216.688 123.887 Z M 156.023 123.613 C 170.629 115.902 172.129 120.543 183.457 118.086 C 189.734 116.719 191.781 113.309 195.262 111.809 C 198.742 110.305 209.59 112.559 209.59 112.559 C 177.449 99.59 156.023 123.613 156.023 123.613 Z M 162.234 173.16 L 165.305 168.109 C 165.305 168.109 150.77 171.59 142.582 159.102 C 142.582 159.102 146.609 170.703 162.234 173.16 Z M 243.707 129.414 C 234.496 165.449 181.34 160.465 181.34 160.465 C 234.43 155.758 234.973 128.801 234.973 128.801 C 234.973 128.801 216.344 94.473 172.129 108.531 C 142.035 118.086 138.012 145.793 138.012 145.793 C 152.203 169.953 192.055 146.75 192.055 146.75 C 183.32 158.555 170.969 170.566 168.512 180.531 C 167.965 182.715 161.758 182.715 156.434 180.258 C 160.461 184.352 167.215 187.082 166.805 189.266 C 162.438 212.129 176.77 218.273 176.77 218.273 C 126.887 200.391 122.043 153.438 142.785 124.16 C 142.785 124.16 146.516 113.879 148.358 102.547 C 149.967 92.644 150.133 81.938 145.105 76.59 C 145.105 76.59 182.84 79.73 203.109 100.066 C 203.109 100.066 202.563 99.934 201.539 99.797 C 229.445 104.438 243.707 129.414 243.707 129.414 Z M 137.121 148.32 C 132.484 183.809 166.328 208.719 166.328 208.719 C 163.734 203.871 162.027 196.98 162.574 191.043 C 162.781 188.926 152.477 184.215 147.973 174.66 C 153.16 178.277 164.895 178.688 165.238 176.984 C 166.875 169.27 173.355 162.105 173.355 162.105 C 146.063 168.453 137.121 148.32 137.121 148.32 Z M 192.328 98.84 C 193.758 98.84 195.125 98.906 196.422 99.043 C 180.453 84.711 153.84 81.574 153.84 81.574 C 159.094 99.113 150.02 115.695 150.02 115.695 C 155.613 110.238 162.371 105.801 170.082 102.934 C 164.965 100.684 157.66 98.637 157.66 98.637 C 162.301 97.953 168.785 100 173.219 101.844 C 174.723 101.363 176.223 100.957 177.723 100.613 C 171.379 96.793 157.184 91.332 157.184 91.332 C 164.828 91.809 175.609 96.793 181.543 99.863 C 183.387 99.523 185.23 99.316 186.938 99.18 C 178.203 93.789 159.641 85.602 159.641 85.602 C 169.875 87.238 184.273 94.473 192.328 98.84 Z M 192.328 98.84" style="fill: rgb(85, 127, 156);"/>
  </g>
  <g fill="#304543">
    <use transform="matrix(1, 0, 0, 1, 195.86500549316406, 291.93701171875)" xlink:href="#q"/>
  </g>
  <text style="fill: rgb(51, 51, 51); font-family: Arial, sans-serif; font-size: 49.7px; font-weight: 700; text-anchor: middle; white-space: pre;" x="177.403" y="303.35">FISHEE</text>
  <text style="fill: rgb(73, 73, 73); fill-opacity: 0.75; font-family: Arial, sans-serif; font-size: 12px; letter-spacing: 2px; text-anchor: middle; white-space: pre;" transform="matrix(1.658257, 0, 0, 1.658257, -125.45871, -171.205551)"><tspan x="183.197" y="306.482">BIBIT BERKUALITAS </tspan><tspan x="183.197" dy="1.1em">​</tspan><tspan>PROFIT TANPA BATAS</tspan></text>
</svg>