<svg width="444" height="512" viewBox="0 0 444 512" fill="none" xmlns="http://www.w3.org/2000/svg">
<path d="M185.89 208.403L189.257 204.268C191.674 201.83 194.264 199.816 197.026 198.438C201.602 197.166 206.695 198.65 210.321 203.102C213.083 206.494 214.464 210.947 214.464 215.505C214.464 220.063 213.083 224.41 210.321 227.908L187.316 256.052C187.387 256.141 187.459 256.23 187.531 256.318C188.049 256.954 188.653 257.696 189.257 258.226L210.321 284.092C215.846 290.983 215.846 302.007 210.321 308.898C207.558 312.29 203.933 313.986 200.221 313.986C196.595 313.986 192.969 312.29 190.12 308.898L157.144 268.403C151.619 261.618 151.619 250.488 157.144 243.703L185.89 208.403Z" fill="white"/>
<path d="M262.404 292.089C261.245 296.201 259.449 300.112 257.024 303.596L253.657 307.73C251.24 310.168 248.65 312.183 245.888 313.561C241.312 314.833 236.219 313.349 232.593 308.896C229.831 305.504 228.45 301.052 228.45 296.493C228.45 292.041 229.831 287.589 232.593 284.091L255.642 255.893C255.585 255.822 255.527 255.751 255.47 255.68C254.952 255.044 254.348 254.302 253.743 253.772L232.68 227.906C227.155 221.016 227.155 209.885 232.68 203.101C235.442 199.708 239.068 198.012 242.78 198.012C246.492 198.012 250.031 199.708 252.88 203.101L285.857 243.596C291.382 250.38 291.382 261.511 285.857 268.295L257.11 303.596C259.508 300.121 261.273 296.209 262.404 292.089Z" fill="white"/>
<path d="M210.321 308.899C207.558 312.291 203.933 313.987 200.221 313.987C196.595 313.987 192.969 312.291 190.12 308.899L157.144 268.404C151.619 261.619 151.619 250.488 157.144 243.704L185.89 208.403C176.308 222.29 176.826 243.174 187.531 256.319C188.049 256.955 188.653 257.697 189.257 258.227L210.321 284.093C215.846 290.983 215.846 302.008 210.321 308.899Z" fill="white"/>
<path d="M187.572 206.191C188.192 205.443 188.723 204.802 189.343 204.162L185.89 208.326C186.421 207.686 186.953 206.938 187.572 206.191Z" fill="#0D1026"/>
<path d="M232.679 203.101C235.442 199.708 239.067 198.012 242.779 198.012C246.492 198.012 250.031 199.708 252.88 203.101L285.856 243.596C291.381 250.38 291.381 261.511 285.856 268.295L257.11 303.596C266.692 289.709 266.174 268.825 255.469 255.68C254.952 255.044 254.347 254.302 253.743 253.772L232.679 227.906C227.154 221.016 227.154 209.885 232.679 203.101Z" fill="white"/>
<path d="M255.514 305.731C254.894 306.478 254.363 307.119 253.743 307.76L257.196 303.595C256.665 304.343 256.134 305.09 255.514 305.731Z" fill="#0D1026"/>
<path d="M402.4 407.671C427.771 393.023 443.4 365.953 443.4 336.658V175.342C443.4 146.047 427.771 118.977 402.4 104.329L262.7 23.6718C237.329 9.02366 206.071 9.02367 180.7 23.6718L40.9996 104.329C15.6289 118.977 0 146.047 0 175.342V336.658C0 365.953 15.629 393.023 40.9997 407.671L180.7 488.328C206.071 502.976 237.329 502.976 262.7 488.328L402.4 407.671ZM90.5 227.658C90.5 198.354 106.138 171.277 131.52 156.632L180.72 128.245C206.081 113.612 237.319 113.612 262.68 128.245L311.88 156.632C337.262 171.277 352.9 198.354 352.9 227.658V284.342C352.9 313.646 337.262 340.723 311.88 355.368L262.68 383.755C237.319 398.388 206.081 398.388 180.72 383.755L131.52 355.368C106.138 340.723 90.5 313.646 90.5 284.342V227.658Z" fill="white"/>
</svg>
